<?xml version="1.0" standalone="no"?>
<!DOCTYPE svg PUBLIC "-//W3C//DTD SVG 1.1//EN" "http://www.w3.org/Graphics/SVG/1.1/DTD/svg11.dtd" >
<svg>
<metadata>
Created by FontForge 20090914 at Sat Nov  2 11:05:15 2013
 By www-data
Copyright (c) 2011, Cyreal (www.cyreal.org)with Reserved Font Name "Volkhov" and "Volkhov Italic".This Font Software is licensed under the SIL Open Font License,Version 1.1. This license is available with a FAQ at:http://scripts.sil.org/OFL
</metadata>
<defs>
<font id="Volkhov-Italic" horiz-adv-x="643" >
  <font-face 
    font-family="Volkhov"
    font-weight="400"
    font-style="italic"
    font-stretch="normal"
    units-per-em="1000"
    panose-1="2 0 5 3 0 0 0 2 0 4"
    ascent="800"
    descent="-200"
    x-height="506.999"
    cap-height="700"
    bbox="-307 -308 1082 960"
    underline-thickness="50"
    underline-position="-50"
    slope="-12"
    unicode-range="U+0020-U+2212"
  />
<missing-glyph horiz-adv-x="252" 
 />
    <glyph glyph-name=".notdef" horiz-adv-x="252" 
 />
    <glyph glyph-name="space" unicode=" " horiz-adv-x="241" 
 />
    <glyph glyph-name="exclam" unicode="!" horiz-adv-x="279" 
d="M82 208l104 492h96l-143 -492h-57zM18 61c0 18 6.66699 33.5 20 46.5s29.333 19.5 48 19.5c18 0 33.5 -6.5 46.5 -19.5s19.5 -28.5 19.5 -46.5c0 -19.333 -6.5 -35.5 -19.5 -48.5s-28.5 -19.5 -46.5 -19.5c-18.667 0 -34.667 6.5 -48 19.5s-20 29.167 -20 48.5z" />
    <glyph glyph-name="quotedbl" unicode="&#x22;" horiz-adv-x="365" 
d="M116 473l26 235h104l-79 -235h-51zM288 473l26 235h104l-79 -235h-51z" />
    <glyph glyph-name="numbersign" unicode="#" horiz-adv-x="550" 
d="M23 0l78 201h-74l15 64h84l75 191h-93l15 64h103l71 180h64l-71 -180h121l71 180h64l-72 -180h83l-14 -64h-93l-76 -191h102l-15 -64h-112l-78 -201h-64l78 201h-121l-78 -201h-63zM189 265h122l75 191h-121z" />
    <glyph glyph-name="dollar" unicode="$" horiz-adv-x="563" 
d="M161 -83l18.998 77.0029c-65.333 4 -123.666 19.333 -174.999 46l56 184h39v-161c28 -11.333 59 -17 93 -17l68 275l-47 35c-24.667 18.667 -45.5 41.5 -62.5 68.5s-25.5 56.833 -25.5 89.5c0 62 23.333 109.667 70 143c42.667 31.333 96.334 48 161.001 50l17 70h58
l-18 -70c53.333 -4 100.333 -14.333 141 -31l-55 -184h-38v153c-16 4 -36.333 6.66699 -61 8l-65 -259l16 -12c22 -18 42.667 -35.833 62 -53.5s35.333 -38.834 48 -63.501s19 -50.667 19 -78c0 -64.667 -24 -113.334 -72 -146.001
c-43.333 -28.667 -101 -44.334 -173 -47.001l-19 -77h-56zM321.998 75.0029c35.333 20 53 50.667 53 92c0 26.667 -8.66699 51.334 -26 74.001c-11.333 15.333 -25 29.666 -41 42.999l-58 -234c26.667 4.66699 50.667 13 72 25zM268.998 626.003
c-31.333 -17.333 -47.002 -46.332 -47.002 -86.999c0 -19.333 6.33301 -38.333 19 -57s28.334 -35.334 47.001 -50.001l54 218c-27.333 -4 -51.666 -12 -72.999 -24z" />
    <glyph glyph-name="percent" unicode="%" horiz-adv-x="725" 
d="M94 0l505 701h65l-503 -701h-67zM97 472c0 64.667 16.333 120.167 49 166.5s76.667 69.5 132 69.5c30 0 53.833 -8.83301 71.5 -26.5s26.5 -43.167 26.5 -76.5c0 -64.667 -16.333 -120.167 -49 -166.5s-76.667 -69.5 -132 -69.5c-30 0 -53.833 8.83301 -71.5 26.5
s-26.5 43.167 -26.5 76.5zM170 471c0 -47.333 12.333 -71 37 -71c26 0 48.667 23 68 69s29 91.667 29 137c0 46.667 -12.333 70 -37 70c-26.667 0 -49.5 -21.833 -68.5 -65.5s-28.5 -90.167 -28.5 -139.5zM377 95c0 64.667 16.333 120.169 49 166.502s76.667 69.5 132 69.5
c30 0 54 -8.83301 72 -26.5s27 -42.834 27 -75.501c0 -64.667 -16.5 -120.167 -49.5 -166.5s-77.167 -69.5 -132.5 -69.5c-30 0 -53.833 8.66699 -71.5 26s-26.5 42.666 -26.5 75.999zM450 95.002c0 -47.333 12.333 -71 37 -71c26 0 48.667 23 68 69s29 91.333 29 136
c0 47.333 -12.333 71 -37 71c-26.667 0 -49.5 -21.833 -68.5 -65.5s-28.5 -90.167 -28.5 -139.5z" />
    <glyph glyph-name="ampersand" unicode="&#x26;" horiz-adv-x="759" 
d="M46 173c0 65.333 21.6729 119.163 65.0059 161.496s100.666 67.833 171.999 76.5l1 2c-32.667 6.66699 -58.667 21.334 -78 44.001s-29 49 -29 79c0 53.333 21 95.333 63 126s98.667 46 170 46c50 0 89.167 -8.5 117.5 -25.5s42.5 -39.5 42.5 -67.5
c0 -24 -9.16699 -41.667 -27.5 -53s-40.5 -17 -66.5 -17c-6 0 -10.333 0.333008 -13 1c6 16 9 31.333 9 46c0 21.333 -6 39.166 -18 53.499s-29.667 21.5 -53 21.5c-34.667 0 -63.5 -13.333 -86.5 -40s-34.5 -59 -34.5 -97c0 -32 10.5 -57 31.5 -75s50.833 -27 89.5 -27
l-6 -51c-25.333 0 -51.5 -3.66699 -78.5 -11s-53 -18.166 -78 -32.499s-45.5 -34.333 -61.5 -60s-24 -54.834 -24 -87.501c0 -40.667 13.167 -72.5 39.5 -95.5s64.166 -34.5 113.499 -34.5c61.333 0 116.166 20.333 164.499 61s83.5 86.334 105.5 137.001h-29
c-62 0 -106.667 -3.66699 -134 -11s-54 -26.333 -80 -57c0 0.666992 -3.16699 3.16699 -9.5 7.5s-9.83301 6.5 -10.5 6.5c12 24.667 27.167 45.334 45.5 62.001s39.333 28.834 63 36.501s46.167 13 67.5 16s45.666 4.5 72.999 4.5h34c37.333 0 69.333 4.16699 96 12.5
s44.667 26.166 54 53.499c15.333 -11.333 23 -29.666 23 -54.999c0 -21.333 -8.66699 -39.333 -26 -54s-46 -22 -86 -22h-30c-32.667 -80 -78.834 -143.5 -138.501 -190.5s-133.834 -70.5 -222.501 -70.5c-69.333 0 -123.333 15.833 -162 47.5s-58 75.834 -58 132.501z" />
    <glyph glyph-name="quotesingle" unicode="'" horiz-adv-x="193" 
d="M116 473l26 235h104l-79 -235h-51z" />
    <glyph glyph-name="parenleft" unicode="(" horiz-adv-x="319" 
d="M8 81c0 138.667 35 272.168 105 400.501s165.333 234.166 286 317.499l22 -29c-102 -89.333 -182 -196 -240 -320s-87 -256.667 -87 -398c0 -134.667 28.667 -242 86 -322l-28 -29c-96 98 -144 224.667 -144 380z" />
    <glyph glyph-name="parenright" unicode=")" horiz-adv-x="317" 
d="M-124 -270c101.333 89.333 181.167 196 239.5 320s87.5 256.667 87.5 398c0 135.333 -29 242.666 -87 321.999l28 29c96 -97.333 144 -224 144 -380c0 -138.667 -35 -272.167 -105 -400.5s-165 -234.166 -285 -317.499z" />
    <glyph glyph-name="asterisk" unicode="*" horiz-adv-x="480" 
d="M118 595l23 70l140 -56l-10 151h74l-10 -151l140 55l23 -69l-146 -39l96 -116l-59 -44l-81 128l-80 -128l-61 44l97 117z" />
    <glyph glyph-name="plus" unicode="+" horiz-adv-x="556" 
d="M64 323v67h195v195h67v-195h197v-67h-197v-196h-67v196h-195z" />
    <glyph glyph-name="comma" unicode="," horiz-adv-x="230" 
d="M-82 -142c52 42 92.667 90.334 122 145.001l-48 50c0 18.667 6.66699 34.5 20 47.5s29.333 19.5 48 19.5s34.5 -6.33301 47.5 -19s19.5 -28.667 19.5 -48s-6 -39.833 -18 -61.5s-27.167 -42.834 -45.5 -63.501s-38.5 -39.667 -60.5 -57s-42.667 -31.333 -62 -42z" />
    <glyph glyph-name="hyphen" unicode="-" horiz-adv-x="368" 
d="M70 235v77h219v-77h-219z" />
    <glyph glyph-name="period" unicode="." horiz-adv-x="231" 
d="M-5 61c0 18 6.66699 33.5 20 46.5s29.333 19.5 48 19.5c18 0 33.5 -6.5 46.5 -19.5s19.5 -28.5 19.5 -46.5c0 -19.333 -6.5 -35.5 -19.5 -48.5s-28.5 -19.5 -46.5 -19.5c-18.667 0 -34.667 6.5 -48 19.5s-20 29.167 -20 48.5z" />
    <glyph glyph-name="slash" unicode="/" horiz-adv-x="433" 
d="M-35 0l466 700h66l-466 -700h-66z" />
    <glyph glyph-name="zero" unicode="0" horiz-adv-x="611" 
d="M55 209c0 60 8.49805 119.671 25.498 179.004s40.333 112.666 70 159.999s66.834 85.833 111.501 115.5s92.667 44.5 144 44.5c59.333 0 103.833 -18.833 133.5 -56.5s44.5 -90.5 44.5 -158.5c0 -84.667 -14.167 -164.834 -42.5 -240.501
s-69.666 -137.834 -123.999 -186.501s-115.833 -73 -184.5 -73c-60 0 -104.667 19.667 -134 59s-44 91.666 -44 156.999zM155.998 202.004c0 -47.333 7.49902 -85.499 22.499 -114.499s37.5 -43.5 67.5 -43.5c42.667 0 82.834 25.5 120.501 76.5s66.5 111.333 86.5 181
s30 135.5 30 197.5c0 47.333 -7.5 85.166 -22.5 113.499s-37.833 42.5 -68.5 42.5c-42.667 0 -82.667 -23.833 -120 -71.5s-66 -106 -86 -175s-30 -137.833 -30 -206.5z" />
    <glyph glyph-name="one" unicode="1" horiz-adv-x="347" 
d="M68 0l156 611l-125 -51l-6 36l226 111h25l-177 -707h-99z" />
    <glyph glyph-name="two" unicode="2" horiz-adv-x="528" 
d="M-18 0l13 60.002l302 319c26 29.333 44.167 52.5 54.5 69.5s19.166 35.167 26.499 54.5s11 38.333 11 57c0 30.667 -7.66699 56 -23 76s-38.333 30 -69 30c-28.667 0 -51.5 -9.83301 -68.5 -29.5s-25.5 -44.834 -25.5 -75.501c0 -17.333 2.33301 -34.333 7 -51
c-9.33301 -1.33301 -15.666 -2 -18.999 -2c-23.333 0 -42.5 6.33301 -57.5 19s-22.5 30.667 -22.5 54c0 37.333 17.167 67.833 51.5 91.5s80.5 35.5 138.5 35.5c56.667 0 102 -12.833 136 -38.5s51 -61.5 51 -107.5c0 -27.333 -4.66699 -52.5 -14 -75.5s-26 -48.333 -50 -76
s-48.667 -53.834 -74 -78.501l-250 -245h254l73 108h40l-68 -195h-417z" />
    <glyph glyph-name="three" unicode="3" horiz-adv-x="543" 
d="M-13 56l19.998 38.999c52.667 -32.667 107.334 -49 164.001 -49c26 0 50.333 3.66699 73 11s42.5 17.833 59.5 31.5s30.5 30.334 40.5 50.001s15 41.5 15 65.5c0 46 -13 80.833 -39 104.5s-68.333 35.834 -127 36.501l12 50c26 0.666992 50.5 5.33398 73.5 14.001
s43 21 60 37s30.333 35.167 40 57.5s14.5 47.166 14.5 74.499c0 26 -7.66699 47.333 -23 64s-36.333 25 -63 25c-33.333 0 -59 -9.33301 -77 -28s-27 -44 -27 -76c0 -16.667 2.33301 -33 7 -49c-8 -2 -15.333 -3 -22 -3c-19.333 0 -36.166 6.33301 -50.499 19
s-21.5 30 -21.5 52c0 20 5.16699 37.833 15.5 53.5s24 28.834 41 39.501s36.667 18.834 59 24.501s45.5 8.5 69.5 8.5c26 0 50.5 -3 73.5 -9s43.167 -14.833 60.5 -26.5s31 -26.5 41 -44.5s15 -39 15 -63c0 -48 -15.833 -88.5 -47.5 -121.5s-74.5 -57.5 -128.5 -73.5v-2
c46.667 -7.33301 82.667 -24 108 -50s38 -59 38 -99c0 -34.667 -6.66699 -65.834 -20 -93.501s-31.5 -51.334 -54.5 -71.001s-50 -34.834 -81 -45.501s-63.833 -16 -98.5 -16c-80 0 -153.333 21 -220 63z" />
    <glyph glyph-name="four" unicode="4" horiz-adv-x="550" 
d="M-19 177l9 35l486 495h50l-115 -464h74l-17 -66h-74l-44 -177h-97l44 177h-316zM96 243h218l72 291z" />
    <glyph glyph-name="five" unicode="5" horiz-adv-x="509" 
d="M-32 35l27 41c36 -18.667 74.333 -28 115 -28c62 0 116 19.833 162 59.5s69 92.167 69 157.5c0 34 -10.833 63 -32.5 87s-54.5 36 -98.5 36c-32 0 -62 -3 -90 -9l-18 14l102 307h203c61.333 0 109.333 20 144 60l6 8l27 -15l-28 -42
c-6 -8.66699 -15.833 -20.167 -29.5 -34.5s-27 -24.833 -40 -31.5s-30.167 -12.667 -51.5 -18s-45 -8 -71 -8h-130l-59 -182l9 3c34.667 8.66699 66 13 94 13c57.333 0 100 -16.5 128 -49.5s42 -72.167 42 -117.5c0 -77.333 -31.667 -145.5 -95 -204.5
s-138.666 -88.5 -225.999 -88.5c-32.667 0 -62.334 3.5 -89.001 10.5s-45 13.833 -55 20.5z" />
    <glyph glyph-name="six" unicode="6" horiz-adv-x="539" 
d="M43 197c0 83.333 18.833 161.666 56.5 234.999s92.667 135 165 185s154.833 80.333 247.5 91l6 -47c-84 -16 -157 -50.5 -219 -103.5s-107.667 -117.167 -137 -192.5c54 42 111.333 63 172 63c50.667 0 89.167 -15.5 115.5 -46.5s39.5 -70.167 39.5 -117.5
c0 -76.667 -24.5 -141 -73.5 -193s-113.5 -78 -193.5 -78c-58 0 -102.333 18.833 -133 56.5s-46 86.834 -46 147.501zM130 199c0 -47.333 9.33301 -85.332 28 -113.999s44.667 -43 78 -43c40 0 74.833 20.667 104.5 62s44.5 88.666 44.5 141.999c0 32 -8 58.5 -24 79.5
s-40.333 31.5 -73 31.5c-46 0 -94 -16 -144 -48c-9.33301 -35.333 -14 -72 -14 -110z" />
    <glyph glyph-name="seven" unicode="7" horiz-adv-x="461" 
d="M71 0c37.333 101.333 90.333 208.833 159 322.5s138.667 210.5 210 290.5h-254l-70 -103h-40l65 190h393l-14 -63c-164 -214.667 -279 -427 -345 -637h-104z" />
    <glyph glyph-name="eight" unicode="8" horiz-adv-x="578" 
d="M46 129c0 49.333 18.001 95 54.001 137s80.333 77.667 133 107c-55.333 49.333 -83 98 -83 146c0 56 22 101.5 66 136.5s97 52.5 159 52.5c52 0 93.333 -11.5 124 -34.5s46 -55.167 46 -96.5c0 -45.333 -14.833 -84 -44.5 -116s-68.5 -61.333 -116.5 -88
c32 -26.667 56.333 -52.667 73 -78s25 -55.333 25 -90c0 -66 -24.833 -117.833 -74.5 -155.5s-111.834 -56.5 -186.501 -56.5c-48 0 -89.167 12 -123.5 36s-51.5 57.333 -51.5 100zM139.001 142c0 -32 10.001 -56.832 30.001 -74.499s45 -26.5 75 -26.5
c42 0 77 12.333 105 37s42 56.667 42 96c0 14.667 -2.5 29 -7.5 43s-10.5 25.667 -16.5 35s-15.667 20.333 -29 33s-23.5 22 -30.5 28s-19.167 15.667 -36.5 29c-36.667 -25.333 -67.834 -55.333 -93.501 -90s-38.5 -71.334 -38.5 -110.001zM243.002 555.001
c0 -20 5.50098 -39.667 16.501 -59s22.5 -34.833 34.5 -46.5s29.667 -27.167 53 -46.5c74 50 111 105 111 165c0 29.333 -10 51.833 -30 67.5s-43.667 23.5 -71 23.5c-30.667 0 -57.334 -9.5 -80.001 -28.5s-34 -44.167 -34 -75.5z" />
    <glyph glyph-name="nine" unicode="9" horiz-adv-x="539" 
d="M50 39c84 16 157 50.5 219 103.5s107.667 117.167 137 192.5c-54 -42 -111.333 -63 -172 -63c-50.667 0 -89.167 15.5 -115.5 46.5s-39.5 70.167 -39.5 117.5c0 76.667 24.5 141 73.5 193s113.5 78 193.5 78c58 0 102.333 -18.833 133 -56.5s46 -86.834 46 -147.501
c0 -83.333 -18.833 -161.666 -56.5 -234.999s-92.667 -135 -165 -185s-154.833 -80.333 -247.5 -91zM183 454c0 -32 8 -58.501 24 -79.501s40.333 -31.5 73 -31.5c46 0 94 16 144 48c9.33301 35.333 14 72 14 110c0 47.333 -9.33301 85.333 -28 114s-44.667 43 -78 43
c-40 0 -74.833 -20.667 -104.5 -62s-44.5 -88.666 -44.5 -141.999z" />
    <glyph glyph-name="colon" unicode=":" horiz-adv-x="231" 
d="M10 61c0 18 6.66699 33.5 20 46.5s29.333 19.5 48 19.5c18 0 33.5 -6.5 46.5 -19.5s19.5 -28.5 19.5 -46.5c0 -19.333 -6.5 -35.5 -19.5 -48.5s-28.5 -19.5 -46.5 -19.5c-18.667 0 -34.667 6.5 -48 19.5s-20 29.167 -20 48.5zM97 394c0 18 6.66699 33.5 20 46.5
s29.333 19.5 48 19.5c18 0 33.5 -6.5 46.5 -19.5s19.5 -28.5 19.5 -46.5c0 -19.333 -6.5 -35.5 -19.5 -48.5s-28.5 -19.5 -46.5 -19.5c-18.667 0 -34.667 6.5 -48 19.5s-20 29.167 -20 48.5z" />
    <glyph glyph-name="semicolon" unicode=";" horiz-adv-x="275" 
d="M98 394c0 18 6.66699 33.5 20 46.5s29.333 19.5 48 19.5c18 0 33.5 -6.5 46.5 -19.5s19.5 -28.5 19.5 -46.5c0 -19.333 -6.5 -35.5 -19.5 -48.5s-28.5 -19.5 -46.5 -19.5c-18.667 0 -34.667 6.5 -48 19.5s-20 29.167 -20 48.5zM-65 -133c52 42 92.667 90.334 122 145.001
l-48 50c0 18.667 6.66699 34.5 20 47.5s29.333 19.5 48 19.5s34.5 -6.33301 47.5 -19s19.5 -28.667 19.5 -48s-6 -39.833 -18 -61.5s-27.167 -42.834 -45.5 -63.501s-38.5 -39.667 -60.5 -57s-42.667 -31.333 -62 -42z" />
    <glyph glyph-name="less" unicode="&#x3c;" horiz-adv-x="580" 
d="M60 330v55l429 231v-77l-336 -182l336 -180v-77z" />
    <glyph glyph-name="equal" unicode="=" horiz-adv-x="597" 
d="M69 241v67h459v-67h-459zM69 406v67h459v-67h-459z" />
    <glyph glyph-name="greater" unicode="&#x3e;" horiz-adv-x="578" 
d="M122 100v77l336 180l-336 182v77l429 -231v-55z" />
    <glyph glyph-name="question" unicode="?" horiz-adv-x="467" 
d="M118 590c0 34 17.335 62.1689 52.002 84.502s82.667 33.5 144 33.5c50 0 91 -11.333 123 -34s48 -53.667 48 -93c0 -35.333 -10 -66 -30 -92s-44.167 -46.5 -72.5 -61.5s-56.833 -28.833 -85.5 -41.5s-53 -27.834 -73 -45.501s-30 -37.834 -30 -60.501
c0 -14.667 4.16699 -26.5 12.5 -35.5s18.833 -13.5 31.5 -13.5c16 0 32.333 6.33301 49 19l24 -31c-22 -21.333 -50 -32 -84 -32c-24.667 0 -46.834 8.33301 -66.501 25s-29.5 39 -29.5 67c0 30 8.66699 56.667 26 80s38.333 42.666 63 57.999l75 45
c24.667 14.667 45.667 32.5 63 53.5s26 45.167 26 72.5c0 24.667 -7.5 43.834 -22.5 57.501s-34.833 20.5 -59.5 20.5c-26.667 0 -47.834 -9.33301 -63.501 -28s-23.5 -43 -23.5 -73c0 -12.667 2.33301 -29.334 7 -50.001c-31.333 0 -56.5 6.33301 -75.5 19
s-28.5 31.334 -28.5 56.001zM113.002 61.002c0 18 6.66699 33.5 20 46.5s29.333 19.5 48 19.5c18 0 33.5 -6.5 46.5 -19.5s19.5 -28.5 19.5 -46.5c0 -19.333 -6.5 -35.5 -19.5 -48.5s-28.5 -19.5 -46.5 -19.5c-18.667 0 -34.667 6.5 -48 19.5s-20 29.167 -20 48.5z" />
    <glyph glyph-name="at" unicode="@" horiz-adv-x="875" 
d="M56 232c0 133.333 42.835 245.999 128.502 337.999s197.5 138 335.5 138c96 0 175.333 -27.167 238 -81.5s94 -124.5 94 -210.5c0 -94 -34.167 -171.5 -102.5 -232.5s-152.833 -91.5 -253.5 -91.5c-18 0 -27 7.66699 -27 23c0 11.333 6.33301 31.333 19 60
c-50.667 -55.333 -103.667 -83 -159 -83c-24.667 0 -44.834 8.33301 -60.501 25s-23.5 42.667 -23.5 78c0 90.667 30 168.834 90 234.501s128.333 98.5 205 98.5c52 0 100.667 -13 146 -39l-120 -344c62.667 9.33301 117.667 39 165 89s71 110.667 71 182
c0 73.333 -27 133.166 -81 179.499s-121.667 69.5 -203 69.5c-74 0 -140 -20.333 -198 -61s-102 -93 -132 -157s-45 -132.667 -45 -206c0 -93.333 28.667 -167.166 86 -221.499s130.666 -81.5 219.999 -81.5c63.333 0 126.333 12.667 189 38l17 -34
c-70.667 -39.333 -149.334 -59 -236.001 -59c-103.333 0 -189.666 30.333 -258.999 91s-104 146.667 -104 258zM341.002 217.999c0 -41.333 13.334 -62 40.001 -62c20 0 42.667 10.333 68 31s48.666 46 69.999 76l76 218c-12 4 -26 6 -42 6
c-55.333 0 -104.5 -27.167 -147.5 -81.5s-64.5 -116.833 -64.5 -187.5z" />
    <glyph glyph-name="A" unicode="A" 
d="M-78 0l10 41l92 22l380 637h55l47 -638l79 -21l-10 -41h-250l10 41l76 18l-12 142h-229l-85 -139l79 -21l-10 -41h-232zM204 255h190l-18 291z" />
    <glyph glyph-name="B" unicode="B" horiz-adv-x="631" 
d="M-20 0l10 40.998l92 22l143 574l-81 22l10 41h233c58.667 0 105.5 -12.167 140.5 -36.5s52.5 -61.166 52.5 -110.499c0 -44.667 -13.833 -84 -41.5 -118s-64.167 -56.667 -109.5 -68l-1 -3c36 -10 64.5 -28.167 85.5 -54.5s31.5 -57.5 31.5 -93.5
c0 -69.333 -27 -122.666 -81 -159.999s-119 -56 -195 -56h-289zM176 55.998l87 0.000976562c51.333 1.33301 94.5 16.666 129.5 45.999s52.5 69.333 52.5 120c0 33.333 -10.667 60.333 -32 81s-51.333 31 -90 31h-77zM260 391.999h55
c45.333 1.33301 83.833 16.833 115.5 46.5s47.5 67.167 47.5 112.5c0 62 -35.333 93 -106 93h-49z" />
    <glyph glyph-name="C" unicode="C" horiz-adv-x="615" 
d="M55 239c0 77.333 16.3359 151.672 49.0029 223.005s80 130.166 142 176.499s131.333 69.5 208 69.5c37.333 0 72.166 -3.33301 104.499 -10s55.5 -13.334 69.5 -20.001l20 -10l-46 -185h-39l-6 157c-28 6.66699 -52.667 10 -74 10c-62 0 -118.333 -18.833 -169 -56.5
s-89.834 -87.334 -117.501 -149.001s-41.5 -128.167 -41.5 -199.5c0 -54 11.333 -99.167 34 -135.5s61 -54.5 115 -54.5c29.333 0 58.666 3 87.999 9l114 162h39l-71 -184c-62.667 -32.667 -124.334 -49 -185.001 -49c-42.667 0 -79.667 6.66699 -111 20
s-55.666 31.666 -72.999 54.999s-30 49.166 -38 77.499s-12 59.5 -12 93.5z" />
    <glyph glyph-name="D" unicode="D" horiz-adv-x="697" 
d="M-20 0l10 41.001l92 22l143 574l-81 22l10 41h216c98 0 172.167 -20.833 222.5 -62.5s75.5 -103.167 75.5 -184.5c0 -73.333 -12.667 -139.333 -38 -198s-60 -106.334 -104 -143.001s-94 -64.5 -150 -83.5s-116 -28.5 -180 -28.5h-216zM178 62.001h33
c104.667 0 190.5 38.333 257.5 115s100.5 170 100.5 280c0 120.667 -71.333 181 -214 181h-33z" />
    <glyph glyph-name="E" unicode="E" horiz-adv-x="593" 
d="M-20 0l10 41l92 22l143 574l-81 22l10 41h465l-51 -205h-38l-6 143h-202l-65 -257l203 20l-20 -84l-194 18l-68 -273h201l109 154h38l-81 -216h-465z" />
    <glyph glyph-name="F" unicode="F" horiz-adv-x="551" 
d="M-20 0l10 41l92 22l143 574l-81 22l10 41h465l-51 -205h-38l-6 143h-202l-65 -257l203 20l-20 -84l-194 18l-68 -272l101 -22l-10 -41h-289z" />
    <glyph glyph-name="G" unicode="G" horiz-adv-x="668" 
d="M54 236c0 85.333 18.167 163.833 54.5 235.5s87.666 129 153.999 172s140.5 64.5 222.5 64.5c58 0 118.333 -13 181 -39l-46 -185h-38l-7 160c-28.667 6 -56 9 -82 9c-99.333 0 -180.5 -40 -243.5 -120s-94.5 -177 -94.5 -291c0 -64.667 17.333 -112.667 52 -144
s80.334 -47 137.001 -47c17.333 0 41 3 71 9l50 201l-99 35l8 31h274l-8 -31l-79 -35l-55 -219c-68.667 -32.667 -135 -49 -199 -49c-72.667 0 -133 20 -181 60s-72 101 -72 183z" />
    <glyph glyph-name="H" unicode="H" horiz-adv-x="770" 
d="M-20 0l10 41l92 22l143 574l-81 22l10 41h270l-10 -41l-93 -22l-63 -252h299l63 252l-80 22l10 41h269l-10 -41l-92 -22l-143 -574l81 -22l-10 -41h-269l10 41l91 22l65 260h-299l-65 -260l82 -22l-10 -41h-270z" />
    <glyph glyph-name="I" unicode="I" horiz-adv-x="375" 
d="M-20 0l10 41l92 22l143 574l-81 22l10 41h270l-10 -41l-93 -22l-143 -574l82 -22l-10 -41h-270z" />
    <glyph glyph-name="J" unicode="J" horiz-adv-x="355" 
d="M-83 -116c90 58.667 150 147.333 180 266l121 487l-80 22l10 41h270l-10 -41l-93 -22l-121 -487c-17.333 -70 -52.333 -131.667 -105 -185s-106 -91.333 -160 -114z" />
    <glyph glyph-name="K" unicode="K" horiz-adv-x="665" 
d="M-20 0l10 41l92 22l143 574l-81 22l10 41h270l-10 -41l-93 -22l-143 -574l82 -22l-10 -41h-270zM274 364l280.999 273l-61 22l10 41h238l-10 -41l-81 -20l-280 -266l51 -117c36 -82.667 64 -136.834 84 -162.501s52.667 -45.5 98 -59.5l-11 -41
c-46 2 -83.833 11 -113.5 27s-54.667 38.833 -75 68.5s-43.166 73.834 -68.499 132.501z" />
    <glyph glyph-name="L" unicode="L" horiz-adv-x="563" 
d="M-20 0l10 41l92 22l143 574l-81 22l10 41h270l-10 -41l-93 -22l-143 -575h201l109 154h38l-81 -216h-465z" />
    <glyph glyph-name="M" unicode="M" horiz-adv-x="938" 
d="M-39 0l10 41l95 23l175 574l-78 21l10 41h180l80 -532l338 532h196l-10 -41l-89 -21l-113 -575l86 -22l-10 -41h-271l10 41l88 21l99 499l-361 -566h-31l-85 567l-149 -500l79 -21l-10 -41h-239z" />
    <glyph glyph-name="N" unicode="N" horiz-adv-x="741" 
d="M-20 0l10 41l92 22l143 574l-81 22l10 41h136l235 -500l109 437l-80 22l10 41h237l-10 -41l-93 -22l-158 -637h-26l-251 532l-117 -469l81 -22l-10 -41h-237z" />
    <glyph glyph-name="O" unicode="O" horiz-adv-x="719" 
d="M54 233c0 80.667 16.334 157.001 49.001 229.001s80.167 131 142.5 177s132.166 69 209.499 69c78 0 137.167 -22.5 177.5 -67.5s60.5 -102.833 60.5 -173.5c0 -59.333 -9.66699 -117.333 -29 -174s-45.833 -107.334 -79.5 -152.001s-76 -80.5 -127 -107.5
s-105.833 -40.5 -164.5 -40.5c-78 0 -137.333 22.5 -178 67.5s-61 102.5 -61 172.5zM156.001 224.001c0 -54.667 12.167 -98 36.5 -130s60.5 -48 108.5 -48c45.333 0 86.833 14 124.5 42s68.167 63.833 91.5 107.5s41.5 90.167 54.5 139.5s19.5 97 19.5 143
c0 54 -12.333 96.667 -37 128s-61 47 -109 47c-44 0 -85 -14 -123 -42s-68.667 -63.667 -92 -107s-41.5 -89.5 -54.5 -138.5s-19.5 -96.167 -19.5 -141.5z" />
    <glyph glyph-name="P" unicode="P" horiz-adv-x="584" 
d="M-20 0l10 41.001l92 22l143 574l-81 22l10 41h233c64.667 0 116.5 -14.833 155.5 -44.5s58.5 -72.834 58.5 -129.501c0 -82.667 -28 -147 -84 -193s-128 -69 -216 -69c-23.333 0 -47 2 -71 6l-52 -207l110 -22l-10 -41h-298zM244 328.001
c18.667 -2.66699 39.667 -4.00098 63 -4.00098c58.667 0 105.667 17.833 141 53.5s53 83.834 53 144.501c0 38 -10.833 67.5 -32.5 88.5s-53.5 31.5 -95.5 31.5h-50z" />
    <glyph glyph-name="Q" unicode="Q" horiz-adv-x="718" 
d="M54 233c0 80.667 16.335 157.002 49.002 229.002s80.167 131 142.5 177s132.166 69 209.499 69c78 0 137.167 -22.5 177.5 -67.5s60.5 -102.833 60.5 -173.5c0 -59.333 -9.5 -117.333 -28.5 -174s-45.5 -106.834 -79.5 -150.501s-69.833 -76.334 -107.5 -98.001
s-72.834 -36.167 -105.501 -43.5c34 -7.33301 66.667 -20.333 98 -39l90 -56c27.333 -16 55.333 -24 84 -24c43.333 0 80.333 21.667 111 65l26 -15c-24.667 -50 -49.834 -86.167 -75.501 -108.5s-54.167 -33.5 -85.5 -33.5c-22.667 0 -44.167 5 -64.5 15s-39.5 23 -57.5 39
l-56 52c-19.333 18 -42.666 36 -69.999 54s-57 32.333 -89 43c-73.333 2 -129.833 25 -169.5 69s-59.5 101 -59.5 171zM156.002 224.002c0 -54.667 12.167 -98 36.5 -130s60.5 -48 108.5 -48c45.333 0 86.833 14 124.5 42s68.167 63.833 91.5 107.5s41.5 90.167 54.5 139.5
s19.5 97 19.5 143c0 54 -12.333 96.667 -37 128s-61 47 -109 47c-44 0 -85 -14 -123 -42s-68.667 -63.667 -92 -107s-41.5 -89.5 -54.5 -138.5s-19.5 -96.167 -19.5 -141.5z" />
    <glyph glyph-name="R" unicode="R" 
d="M-20 0l9.99902 41.0039l92 22l143 574l-81 22l10 41h242c64 0 115 -13.333 153 -40s57 -65.667 57 -117c0 -62 -18.667 -111.833 -56 -149.5s-84.666 -59.834 -141.999 -66.501l28 -94c16 -56.667 34.5 -100.834 55.5 -132.501s52.833 -53.834 95.5 -66.501l-11 -41
c-64 2.66699 -112.5 21.167 -145.5 55.5s-59.5 84.166 -79.5 149.499l-36 114l-75 -1l-62 -248l82 -22l-10 -41h-270zM253.999 366.004l59 -0.00195312c54.667 0.666992 100.5 16.334 137.5 47.001s55.5 73.334 55.5 128.001c0 32 -10.667 56.833 -32 74.5
s-52 26.5 -92 26.5h-59z" />
    <glyph glyph-name="S" unicode="S" horiz-adv-x="551" 
d="M-1 40l56.002 184.003h39v-161c29.333 -11.333 61.666 -17 96.999 -17c48.667 0 90.5 9.83301 125.5 29.5s52.5 50.167 52.5 91.5c0 26.667 -8.5 51.5 -25.5 74.5s-37.833 43.167 -62.5 60.5l-73 54c-24 18.667 -44.667 41.5 -62 68.5s-26 56.833 -26 89.5
c0 62 23.333 109.833 70 143.5s106.334 50.5 179.001 50.5c69.333 0 129.333 -10.667 180 -32l-55 -184h-38v153c-19.333 5.33301 -45 8 -77 8c-46 0 -84.667 -8.83301 -116 -26.5s-47 -46.834 -47 -87.501c0 -19.333 6.33301 -38.333 19 -57s28.667 -35.334 48 -50.001
l63 -50c22.667 -18 43.5 -35.833 62.5 -53.5s34.833 -38.834 47.5 -63.501s19 -50.667 19 -78c0 -64.667 -23.833 -113.167 -71.5 -145.5s-112.834 -48.5 -195.501 -48.5c-78.667 0 -148.334 15.667 -209.001 47z" />
    <glyph glyph-name="T" unicode="T" horiz-adv-x="593" 
d="M80 488l53 212h530l-53 -212h-38l-5 150h-135l-144 -575l81 -22l-10 -41h-270l10 41l92 22l144 575h-136l-80 -150h-39z" />
    <glyph glyph-name="U" unicode="U" horiz-adv-x="737" 
d="M97 169c0 30 4.66699 63.334 14 100.001l92 368l-81 22l10 41h270l-10 -41l-93 -22l-92 -368c-9.33301 -38.667 -14 -67 -14 -85c0 -40.667 13 -70.834 39 -90.501s61.333 -29.5 106 -29.5c50.667 0 94.334 18 131.001 54s63 86.333 79 151l92 368l-80 22l10 41h237
l-10 -41l-93 -22l-92 -368c-22.667 -92 -60.5 -161 -113.5 -207s-118.833 -69 -197.5 -69c-60.667 0 -109.834 14.667 -147.501 44s-56.5 73.333 -56.5 132z" />
    <glyph glyph-name="V" unicode="V" horiz-adv-x="640" 
d="M85 659l10 41h252l-10 -41l-77 -17l38 -496l273 491l-70 22l10 41h232l-10 -41l-92 -22l-358 -644h-70l-50 644z" />
    <glyph glyph-name="W" unicode="W" horiz-adv-x="942" 
d="M84 659l10 41h250l-10 -41l-77 -18l22 -475l271 534h61l28 -533l230 470l-79 22l10 41h239l-10 -41l-92 -22l-315 -644h-69l-29 523l-264 -523h-69l-30 645z" />
    <glyph glyph-name="X" unicode="X" horiz-adv-x="655" 
d="M-74 0l10 41l92 22l268 299l-96 274l-80 23l10 41h241l-10 -41l-63 -16l77 -219l186 215l-73 20l10 41h249l-10 -41l-93 -22l-246 -278l104 -297l80 -21l-10 -41h-242l10 41l63 15l-84 240l-207 -235l73 -20l-10 -41h-249z" />
    <glyph glyph-name="Y" unicode="Y" horiz-adv-x="615" 
d="M77 659l10 41h237l-10 -41l-64 -13l93 -261l204 254l-74 20l10 41h231l-10 -41l-76 -22l-259 -319l-63 -255l88 -22l-10 -41h-269l10 41l84 22l62 250l-120 326z" />
    <glyph glyph-name="Z" unicode="Z" horiz-adv-x="608" 
d="M-20 0l15 62l498 576h-267l-77 -143h-38l51 205h470l-15 -62l-497 -576h284l108 154h39l-81 -216h-490z" />
    <glyph glyph-name="bracketleft" unicode="[" horiz-adv-x="319" 
d="M-15 -128l221 888h210l-12 -50h-117l-197 -788h117l-12 -50h-210z" />
    <glyph glyph-name="backslash" unicode="\" horiz-adv-x="363" 
d="M159 -121l5 881h50v-881h-55z" />
    <glyph glyph-name="bracketright" unicode="]" horiz-adv-x="318" 
d="M-85 -128l12 50h116l197 788h-116l12 50h209l-221 -888h-209z" />
    <glyph glyph-name="asciicircum" unicode="^" horiz-adv-x="559" 
d="M107 267l308 448h41l87 -448h-63l-64 356l-239 -356h-70z" />
    <glyph glyph-name="underscore" unicode="_" horiz-adv-x="774" 
d="M56 -78h459v-64h-459v64z" />
    <glyph glyph-name="grave" unicode="`" horiz-adv-x="175" 
d="M-39 715c23.333 28 54.667 45.333 94 52l101 -176l-35 -27z" />
    <glyph glyph-name="a" unicode="a" horiz-adv-x="567" 
d="M24 137c0 102.667 30.834 190.001 92.501 262.001s136.167 108 223.5 108c62 0 116.333 -15.333 163 -46l-101 -392h100v-32c-49.333 -15.333 -86.833 -26.5 -112.5 -33.5s-42.834 -10.5 -51.501 -10.5c-23.333 0 -35 10 -35 30c0 10 2.33301 23.667 7 41l9 36
c-56 -71.333 -117.333 -107 -184 -107c-32 0 -58.5 11.667 -79.5 35s-31.5 59.666 -31.5 108.999zM122.001 159.001c0 -64.667 20.668 -96.998 62.001 -96.998c22.667 0 49.167 12.667 79.5 38s56.833 55.666 79.5 90.999l69 265c-14 4.66699 -30.667 7 -50 7
c-46.667 0 -88.834 -15.833 -126.501 -47.5s-66 -70.334 -85 -116.001s-28.5 -92.5 -28.5 -140.5z" />
    <glyph glyph-name="b" unicode="b" horiz-adv-x="540" 
d="M16 39l183 691.999h-100v32c49.333 15.333 86.833 26.5 112.5 33.5s42.834 10.5 51.501 10.5c23.333 0 35 -10 35 -30c0 -10 -2.33301 -23.667 -7 -41l-88 -333c55.333 69.333 115.666 104 180.999 104c32 0 58.5 -11.667 79.5 -35s31.5 -59.666 31.5 -108.999
c0 -102.667 -30.833 -190 -92.5 -262s-136.167 -108 -223.5 -108c-62 0 -116.333 15.333 -163 46zM107 43.999c14 -4.66699 30.665 -7 49.998 -7c46.667 0 88.834 15.833 126.501 47.5s66 70.334 85 116.001s28.5 92.5 28.5 140.5c0 64.667 -20.667 97 -62 97
c-22.667 0 -48.667 -12.333 -78 -37s-55.666 -54.334 -78.999 -89.001z" />
    <glyph glyph-name="c" unicode="c" horiz-adv-x="462" 
d="M27 170c0 40 6.50293 79.668 19.5029 119.001s31.333 75.333 55 108s54.167 59.167 91.5 79.5s78.333 30.5 123 30.5c41.333 0 74.833 -7.83301 100.5 -23.5s38.5 -34.834 38.5 -57.501c0 -20 -8.16699 -36.833 -24.5 -50.5s-37.833 -20.834 -64.5 -21.501
c-2.66699 10 -5.83398 23 -9.50098 39s-6.33398 27 -8.00098 33s-4.33398 13 -8.00098 21s-7.66699 13.333 -12 16s-10.166 4 -17.499 4c-46.667 0 -88.5 -27.667 -125.5 -83s-55.5 -124 -55.5 -206c0 -41.333 9.33301 -74.333 28 -99s48.667 -37 90 -37
c32.667 0 71.667 8.66699 117 26l10 -31c-58.667 -29.333 -119.334 -44 -182.001 -44c-52 0 -92.667 15.333 -122 46s-44 74.334 -44 131.001z" />
    <glyph glyph-name="d" unicode="d" horiz-adv-x="572" 
d="M24 137c0 102.667 30.833 190.002 92.5 262.002s136.167 108 223.5 108c28 0 54.333 -3.33301 79 -10l57 233h-100v32c49.333 16 87.333 27.5 114 34.5s43.667 10.5 51 10.5c23.333 0 35 -10.333 35 -31c0 -6.66699 -2.33301 -20.334 -7 -41.001l-163 -666h100v-32
c-49.333 -15.333 -86.833 -26.5 -112.5 -33.5s-43.167 -10.5 -52.5 -10.5c-23.333 0 -35 10 -35 30c0 10 2.33301 23.667 7 41l10 41c-58 -74.667 -120.667 -112 -188 -112c-32 0 -58.5 11.667 -79.5 35s-31.5 59.666 -31.5 108.999zM122 159.002
c0 -64.667 20.668 -96.998 62.001 -96.998c23.333 0 50.333 13.167 81 39.5s57 57.166 79 92.499l65 263c-15.333 4 -31 6 -47 6c-46.667 0 -88.834 -15.833 -126.501 -47.5s-66 -70.334 -85 -116.001s-28.5 -92.5 -28.5 -140.5z" />
    <glyph glyph-name="e" unicode="e" horiz-adv-x="473" 
d="M24 162c0 32 4.33203 64.167 12.999 96.5s21.834 63.333 39.501 93s38.5 56 62.5 79s52.667 41.5 86 55.5s69 21 107 21c37.333 0 67.5 -8.5 90.5 -25.5s34.5 -41.833 34.5 -74.5c0 -24.667 -7.16699 -47.167 -21.5 -67.5s-31.833 -37.5 -52.5 -51.5s-47 -27 -79 -39
s-61.167 -21.5 -87.5 -28.5s-56.833 -14.167 -91.5 -21.5c-0.666992 -6 -1 -15 -1 -27c0 -86.667 37.667 -130 113 -130c34.667 0 75.667 9 123 27l10 -31c-60 -30 -121.333 -45 -184 -45c-108 0 -162 56.333 -162 169zM129.999 238c152.667 55.333 229 115 229 179
c0 35.333 -15.667 53 -47 53c-40 0 -77.5 -23.167 -112.5 -69.5s-58.167 -100.5 -69.5 -162.5z" />
    <glyph glyph-name="f" unicode="f" horiz-adv-x="348" 
d="M-307 -221c0 32 25.334 61.6709 76.001 89.0039c14.667 -40.667 23.167 -63.834 25.5 -69.501s6.33301 -13.834 12 -24.501s10.834 -17.834 15.501 -21.501s11 -7.33398 19 -11.001s17 -5.5 27 -5.5c31.333 0 60.5 17 87.5 51s48.167 83 63.5 147l125 515h-74l8 33l75 6
l21 85c20.667 82.667 56 142.334 106 179.001s106.667 55 170 55c108 0 162 -27.667 162 -83c0 -33.333 -24 -61 -72 -83l-31 65c-10 21.333 -21.667 36.666 -35 45.999c-6.66699 4.66699 -13.334 7.66699 -20.001 9s-12.667 2 -18 2c-82.667 0 -141.667 -71.667 -177 -215
l-13 -53l146 12l-15 -58h-142l-126 -517c-38.667 -160 -126.334 -240 -263.001 -240c-46 0 -83 8 -111 24s-42 37 -42 63z" />
    <glyph glyph-name="g" unicode="g" horiz-adv-x="543" 
d="M-53 -221c0 32 25.335 61.6729 76.002 89.0059c2.66699 -6.66699 7 -18.5 13 -35.5s10.167 -28.333 12.5 -34s6.33301 -13.834 12 -24.501s11 -17.834 16 -21.501s11.667 -7.33398 20 -11.001s17.5 -5.5 27.5 -5.5c70.667 0 124.667 73.667 162 221l37 149
c-57.333 -75.333 -120 -113 -188 -113c-32 0 -58.5 11.667 -79.5 35s-31.5 59.666 -31.5 108.999c0 102.667 30.833 190 92.5 262s136.167 108 223.5 108c62 0 116.333 -15.333 163 -46l-132 -529c-22.667 -90.667 -56.834 -153.334 -102.501 -188.001
s-100.834 -52 -165.501 -52c-46 0 -83.5 8.16699 -112.5 24.5s-43.5 37.166 -43.5 62.499zM122.002 159.006c0 -64.667 20.667 -96.999 62 -96.999c24 0 51.333 13.333 82 40s57.334 58 80.001 94l66 260c-14 4.66699 -30.667 7 -50 7
c-46.667 0 -88.834 -15.833 -126.501 -47.5s-66 -70.334 -85 -116.001s-28.5 -92.5 -28.5 -140.5z" />
    <glyph glyph-name="h" unicode="h" horiz-adv-x="573" 
d="M12 -7l183.999 737.999h-100v32c49.333 15.333 86.833 26.5 112.5 33.5s43.167 10.5 52.5 10.5c23.333 0 35 -10 35 -30c0 -10 -2.33301 -23.667 -7 -41l-92 -363c66 89.333 133.333 134 202 134c62 0 93 -32.667 93 -98c0 -31.333 -8.33301 -75.666 -25 -132.999
l-60 -207h100v-32c-49.333 -15.333 -86.833 -26.5 -112.5 -33.5s-43.167 -10.5 -52.5 -10.5c-23.333 0 -35 10 -35 30c0 10 2.33301 23.667 7 41l71 246c8.66699 33.333 13.167 53 13.5 59s0.5 11.667 0.5 17c0 32 -12.333 48 -37 48c-25.333 0 -56.666 -15 -93.999 -45
s-68.333 -65 -93 -105l-71 -284z" />
    <glyph glyph-name="i" unicode="i" horiz-adv-x="313" 
d="M45 22c-0.666992 5.33301 -0.166992 11.333 1.5 18l5.5 23l94 369h-101v31c92 29.333 147 44 165 44c24 0 36 -9.66699 36 -29c0 -7.33301 -2.66699 -21 -8 -41l-92 -369h100v-31c-88 -29.333 -143 -44 -165 -44c-24 0 -36 9.66699 -36 29zM166 644
c0 18 6.33301 33.167 19 45.5s28 18.5 46 18.5s33.167 -6.16699 45.5 -18.5s18.5 -27.5 18.5 -45.5c0 -18.667 -6.16699 -34.167 -18.5 -46.5s-27.5 -18.5 -45.5 -18.5s-33.333 6.16699 -46 18.5s-19 27.833 -19 46.5z" />
    <glyph glyph-name="j" unicode="j" horiz-adv-x="296" 
d="M-302 -221c0 32 25.333 61.6709 76 89.0039c2.66699 -6.66699 7 -18.5 13 -35.5s10.167 -28.333 12.5 -34s6.33301 -13.834 12 -24.501s11 -17.834 16 -21.501s11.5 -7.33398 19.5 -11.001s17 -5.5 27 -5.5c29.333 0 59 16 89 48s55 89.667 75 173l115 474h-100v32
c49.333 15.333 86.833 26.5 112.5 33.5s43.167 10.5 52.5 10.5c23.333 0 35 -10 35 -30c0 -9.33301 -2.33301 -23 -7 -41l-125 -504c-39.333 -160 -128 -240 -266 -240c-46.667 0 -84.5 8.16699 -113.5 24.5s-43.5 37.166 -43.5 62.499zM181 644.004
c0 18 6.33301 33.167 19 45.5s28 18.5 46 18.5s33.167 -6.16699 45.5 -18.5s18.5 -27.5 18.5 -45.5c0 -18.667 -6.16699 -34.167 -18.5 -46.5s-27.5 -18.5 -45.5 -18.5s-33.333 6.16699 -46 18.5s-19 27.833 -19 46.5z" />
    <glyph glyph-name="k" unicode="k" horiz-adv-x="535" 
d="M12 -7l183 738.001h-100v32c49.333 15.333 86.833 26.5 112.5 33.5s43.167 10.5 52.5 10.5c23.333 0 35 -10 35 -30c0 -6.66699 -2.33301 -20.334 -7 -41.001l-184 -736zM187 260.001c130 59.333 195.001 108.001 195.001 146.001c0 18 -12.333 43 -37 75
c21.333 17.333 45.666 26 72.999 26c43.333 0 65 -20 65 -60c0 -60.667 -64.333 -123.334 -193 -188.001l52 -96c25.333 -46 46 -77.667 62 -95s40 -31 72 -41l-8 -34c-51.333 0 -90.333 7 -117 21s-52.667 44 -78 90z" />
    <glyph glyph-name="l" unicode="l" horiz-adv-x="296" 
d="M29 22c0 8.66699 2.66699 22.333 8 41l166 668h-100v32c48.667 15.333 85.667 26.5 111 33.5s43.333 10.5 54 10.5c23.333 0 35 -10 35 -30c0 -8 -2.66699 -21.667 -8 -41l-166 -668h100v-31c-88 -29.333 -143 -44 -165 -44c-23.333 0 -35 9.66699 -35 29z" />
    <glyph glyph-name="m" unicode="m" horiz-adv-x="869" 
d="M36 -7l110.001 438.004h-100v32c50 15.333 87.667 26.5 113 33.5s42.666 10.5 51.999 10.5c23.333 0 35 -10 35 -30c0 -5.33301 -0.666992 -11.333 -2 -18s-3 -14.334 -5 -23.001l-13 -50c58.667 80.667 121 121 187 121c62.667 0 94 -33.333 94 -100
c0 -2 -0.166992 -5 -0.5 -9s-0.833008 -9 -1.5 -15c60 82.667 123 124 189 124c62.667 0 94 -33.333 94 -100c0 -42 -28.667 -154.667 -86 -338h100v-32c-49.333 -15.333 -86.333 -26.5 -111 -33.5s-42.667 -10.5 -54 -10.5c-23.333 0 -35 10 -35 30
c0 11.333 2.33301 25 7 41c56 190.667 84 298.334 84 323.001c0 30.667 -12 46 -36 46c-12 0 -25.5 -3.83301 -40.5 -11.5s-30.167 -17.834 -45.5 -30.501s-30.333 -27.334 -45 -44.001s-28 -34.334 -40 -53.001l-79 -294l-95 -7l76 280c16 58.667 24 96.667 24 114
c0 30.667 -12 46 -36 46c-12 0 -25.5 -4 -40.5 -12s-30.5 -18.5 -46.5 -31.5s-31.667 -28.333 -47 -46s-29 -35.834 -41 -54.501l-73 -289z" />
    <glyph glyph-name="n" unicode="n" horiz-adv-x="598" 
d="M37 -7l108.998 438.001h-100v32c50 15.333 87.667 26.5 113 33.5s42.666 10.5 51.999 10.5c23.333 0 35 -10 35 -30c0 -5.33301 -0.666992 -11.333 -2 -18s-3 -14.334 -5 -23.001l-16 -62c66.667 88.667 133.667 133 201 133c62 0 93 -32.667 93 -98
c0 -33.333 -8.33301 -77.666 -25 -132.999l-60 -207h100v-32c-50 -15.333 -87.667 -26.5 -113 -33.5s-42.666 -10.5 -51.999 -10.5c-23.333 0 -35 10 -35 30c0 11.333 2.33301 25 7 41c50.667 175.333 77.5 270.166 80.5 284.499s4.5 26.833 4.5 37.5
c0 31.333 -12.333 47 -37 47c-12 0 -26.167 -4.16699 -42.5 -12.5s-33.166 -19.333 -50.499 -33s-34.166 -29.5 -50.499 -47.5s-30.5 -36.333 -42.5 -55l-72 -285z" />
    <glyph glyph-name="o" unicode="o" horiz-adv-x="538" 
d="M26 176c0 54.667 11.8359 106.834 35.5029 156.501s58.667 91.167 105 124.5s98.833 50 157.5 50c54.667 0 96 -16.333 124 -49s42 -77.667 42 -135c0 -54 -11.833 -106 -35.5 -156s-58.834 -91.5 -105.501 -124.5s-99.334 -49.5 -158.001 -49.5
c-54.667 0 -95.834 16.167 -123.501 48.5s-41.5 77.166 -41.5 134.499zM127.003 158c0 -83.333 25.333 -125.001 76 -125.001c30.667 0 58.334 10.833 83.001 32.5s44.167 48.834 58.5 81.501s25.166 65.834 32.499 99.501s11 65.167 11 94.5c0 84 -25.333 126 -76 126
c-30 0 -57.5 -10.833 -82.5 -32.5s-44.5 -48.834 -58.5 -81.501s-24.833 -66 -32.5 -100s-11.5 -65.667 -11.5 -95z" />
    <glyph glyph-name="p" unicode="p" horiz-adv-x="571" 
d="M-39 -300l186 731h-100v32c49.333 15.333 86.333 26.5 111 33.5s42.667 10.5 54 10.5c23.333 0 35 -10 35 -30c0 -6.66699 -2.33301 -20.334 -7 -41.001l-9 -36c56 71.333 117.333 107 184 107c32 0 58.5 -11.667 79.5 -35s31.5 -59.666 31.5 -108.999
c0 -102.667 -30.833 -190 -92.5 -262s-136.167 -108 -223.5 -108c-26.667 0 -53.667 3 -81 9l-73 -287zM140 43c11.333 -4 27.333 -6.00098 48 -6.00098c46.667 0 88.834 15.833 126.501 47.5s66 70.334 85 116.001s28.5 92.5 28.5 140.5c0 64.667 -20.667 97 -62 97
c-23.333 0 -49.833 -12.667 -79.5 -38s-55.834 -55.333 -78.501 -90z" />
    <glyph glyph-name="q" unicode="q" horiz-adv-x="541" 
d="M24 137c0 102.667 30.833 190.001 92.5 262.001s136.167 108 223.5 108c62 0 116.333 -15.333 163 -46l-195 -755l-94 -13l106 408c-58 -72 -119.667 -108 -185 -108c-32 0 -58.5 11.667 -79.5 35s-31.5 59.666 -31.5 108.999zM122 159.001
c0 -64.667 20.668 -96.999 62.001 -96.999c23.333 0 50 12.833 80 38.5s56.333 56.167 79 91.5l69 264c-14 4.66699 -30.667 7 -50 7c-46.667 0 -88.834 -15.833 -126.501 -47.5s-66 -70.334 -85 -116.001s-28.5 -92.5 -28.5 -140.5z" />
    <glyph glyph-name="r" unicode="r" horiz-adv-x="445" 
d="M36 -7l110.001 439.002h-100v31c89.333 29.333 144.333 44 165 44c23.333 0 35 -9.66699 35 -29c0 -10.667 -2.33301 -24.334 -7 -41.001l-16 -61c65.333 87.333 125 131 179 131c20 0 35.833 -6 47.5 -18s17.5 -27 17.5 -45c0 -19.333 -6.66699 -39.333 -20 -60
c-45.333 20.667 -76.333 31 -93 31c-14 0 -27.833 -3.5 -41.5 -10.5s-27.834 -18.5 -42.501 -34.5s-26.167 -29.333 -34.5 -40s-20.5 -27.334 -36.5 -50.001l-70 -280z" />
    <glyph glyph-name="s" unicode="s" horiz-adv-x="444" 
d="M-11 79c0 10 1.83105 18.832 5.49805 26.499s10 15.167 19 22.5s16.5 12.833 22.5 16.5s15.667 9.16699 29 16.5c14 -39.333 30.167 -70.166 48.5 -92.499s44.5 -33.5 78.5 -33.5c22 0 40.333 6.5 55 19.5s22 30.167 22 51.5c0 20 -6.33301 38.333 -19 55
c-12 16.667 -45.667 45 -101 85c-18 13.333 -33.333 31 -46 53s-19 46.667 -19 74c0 42.667 16.167 75.667 48.5 99s76.166 35 131.499 35c47.333 0 85.5 -7 114.5 -21s43.5 -33 43.5 -57c0 -28.667 -26.667 -51.334 -80 -68.001c-21.333 68 -55.666 102 -102.999 102
c-20.667 0 -37.667 -5.5 -51 -16.5s-20 -26.167 -20 -45.5c0 -14.667 4.66699 -29 14 -43s19 -25.167 29 -33.5s25.333 -20.166 46 -35.499c65.333 -47.333 98 -98.333 98 -153c0 -44 -16.667 -78.833 -50 -104.5s-80.666 -38.5 -141.999 -38.5
c-55.333 0 -98.166 8 -128.499 24s-45.5 36.667 -45.5 62z" />
    <glyph glyph-name="t" unicode="t" horiz-adv-x="373" 
d="M54 53c0 10 1.66602 22.333 4.99902 37l91 362h-83l8 30l85 7l22 87l93 15l-24 -95l131 11l-14 -55h-128l-84 -343c-1.33301 -6.66699 -2 -10.667 -2 -12c0 -14.667 7.66699 -22 23 -22c17.333 0 39.333 4.33301 66 13l68 22l10 -32
c-12.667 -7.33301 -44.667 -23.333 -96 -48s-90.666 -37 -117.999 -37c-35.333 0 -53 20 -53 60z" />
    <glyph glyph-name="u" unicode="u" horiz-adv-x="597" 
d="M44 431l0.00195312 31.998c50 15.333 87.667 26.5 113 33.5s42.666 10.5 51.999 10.5c23.333 0 35 -10 35 -30c0 -5.33301 -2.33301 -16.833 -7 -34.5l-17 -63l-22 -78.5l-22 -79.5c-6.66699 -25 -12.334 -47.333 -17.001 -67s-7 -33.167 -7 -40.5
c0 -31.333 12.333 -47 37 -47c12.667 0 27.167 4.16699 43.5 12.5s33 19.5 50 33.5s33.667 29.833 50 47.5s30.5 35.834 42.5 54.501l72 285l92 7l-109 -438h100v-32c-50 -15.333 -87.667 -26.5 -113 -33.5s-42.666 -10.5 -51.999 -10.5c-23.333 0 -35 10 -35 30
c-0.666992 8.66699 1.66602 22.334 6.99902 41.001l16 62c-66.667 -88.667 -133.667 -133 -201 -133c-62 0 -93 32.667 -93 98c0 32.667 8.33301 77 25 133l60 207h-100z" />
    <glyph glyph-name="v" unicode="v" horiz-adv-x="541" 
d="M19 431l-0.000976562 32c74.667 29.333 122 44 142 44c21.333 0 34 -10 38 -30l75 -403c33.333 42.667 58.833 76.5 76.5 101.5s35.834 57 54.501 96s28 73.167 28 102.5c0 18 -5.5 33 -16.5 45s-29.5 27 -55.5 45c24.667 28.667 54.334 43 89.001 43
c19.333 0 35.833 -5.66699 49.5 -17s20.5 -29 20.5 -53c0 -42 -17.333 -94.667 -52 -158s-100.334 -156.333 -197.001 -279l-75 -7l-77 438h-100z" />
    <glyph glyph-name="w" unicode="w" horiz-adv-x="814" 
d="M19 431l-0.00195312 32.001c78.667 29.333 127.334 44 146.001 44c22 0 34.667 -10 38 -30l70 -404c84.667 107.333 131 202 139 284l-25 143l89 7l80 -431c92 117.333 138 216.666 138 297.999c0 18 -5.5 33 -16.5 45s-29.5 27 -55.5 45
c24.667 28.667 54.334 43 89.001 43c18.667 0 35 -5.66699 49 -17s21 -29 21 -53c0 -46.667 -14.833 -101.834 -44.5 -165.501s-91.167 -154.167 -184.5 -271.5l-77 -7l-44 255c-5.33301 -8 -17.333 -28.667 -36 -62s-37.5 -64.666 -56.5 -93.999s-41.167 -60 -66.5 -92
l-76 -7l-77 438h-100z" />
    <glyph glyph-name="x" unicode="x" horiz-adv-x="553" 
d="M-30 54c0 16 4.33301 35.333 13 58c35.333 -11.333 63.333 -17 84 -17c22 0 40.333 6.16699 55 18.5s30 29.833 46 52.5l56 78l-56 187h-101v32c72 29.333 117 44 135 44c22.667 0 37 -10 43 -30l47 -159c54 72 94.667 121.5 122 148.5s54 40.5 80 40.5
c18.667 0 33.667 -5.83301 45 -17.5s17 -26.5 17 -44.5c0 -14 -4.66699 -33.333 -14 -58c-36 11.333 -64 17 -84 17c-18.667 0 -35.167 -5 -49.5 -15s-31.833 -29.333 -52.5 -58l-47 -66l60 -196h101v-32c-68.667 -29.333 -113.667 -44 -135 -44c-22.667 0 -37 10 -43 30
l-51 169c-55.333 -74.667 -97.5 -126.5 -126.5 -155.5s-56.5 -43.5 -82.5 -43.5c-18.667 0 -33.667 5.66699 -45 17s-17 26 -17 44z" />
    <glyph glyph-name="y" unicode="y" horiz-adv-x="543" 
d="M0 -245c0 15.333 5.16602 31.334 15.499 48.001s22.5 31.667 36.5 45l66 64l80 81l-78 438h-100v32c76 29.333 123.333 44 142 44c22 0 34.667 -10 38 -30l73 -400l8 9c58 70 98 127 120 171s33 83 33 117c0 11.333 -3.16699 22 -9.5 32s-13.5 18.5 -21.5 25.5
s-21.667 17.833 -41 32.5c24.667 28.667 54.334 43 89.001 43c18.667 0 35 -5.66699 49 -17s21 -29 21 -53c0 -88.667 -69 -216.334 -207 -383.001l-140 -162c-13.333 -14 -25.5 -27.833 -36.5 -41.5s-18.167 -24.5 -21.5 -32.5s-5 -16.333 -5 -25c0 -18 8.33301 -36 25 -54
c-23.333 -26 -49.333 -39 -78 -39c-15.333 0 -28.833 4.5 -40.5 13.5s-17.5 22.833 -17.5 41.5z" />
    <glyph glyph-name="z" unicode="z" horiz-adv-x="510" 
d="M6 26l370.998 405.999c-18 -10.667 -56 -16 -114 -16h-56c-34 0 -61 -4.66699 -81 -14s-35 -27.666 -45 -54.999l-33 8c15.333 63.333 28.833 104.5 40.5 123.5s25.834 28.5 42.501 28.5c14.667 0 46.834 -1.16699 96.501 -3.5s85.5 -3.5 107.5 -3.5
c50 0 93.333 2.33301 130 7l17 -29l-384 -423c60 10 120.333 15 181 15c116 0 174 -27.333 174 -82c0 -40 -27.333 -60 -82 -60l-18 1v6c0 24 -14 43 -42 57s-65.667 21 -113 21c-38.667 0 -95.667 -4.33301 -171 -13z" />
    <glyph glyph-name="braceleft" unicode="{" horiz-adv-x="351" 
d="M22 296l10.998 41.999c36 2 65.5 10.5 88.5 25.5s39.167 41.5 48.5 79.5l43 174c24 95.333 81 143 171 143h62l-11 -43h-28c-51.333 0 -85.666 -35 -102.999 -105l-43 -171c-17.333 -70 -62 -111 -134 -123v-1c52.667 -10 79 -38.667 79 -86c0 -11.333 -2 -24 -6 -38
l-44 -173c-5.33301 -19.333 -8 -35.333 -8 -48c0 -38 19.667 -57 59 -57h28l-10 -43h-62c-34.667 0 -61 8.5 -79 25.5s-27 40.833 -27 71.5c0 14 2 29.667 6 47l44 174c3.33301 12.667 5 25.334 5 38.001c0 24 -7.66699 40.833 -23 50.5s-37.666 15.5 -66.999 17.5z" />
    <glyph glyph-name="bar" unicode="|" horiz-adv-x="317" 
d="M118 -240v1000h65v-1000h-65z" />
    <glyph glyph-name="braceright" unicode="}" horiz-adv-x="351" 
d="M-83 -128l10.001 43.001h28c27.333 0 49 8.66699 65 26s28.667 43.666 38 78.999l44 173c18 70.667 63.333 112 136 124v1c-53.333 10 -80 38.667 -80 86c0 10 1.66699 22.333 5 37l43 171c5.33301 20 8 36.667 8 50c0 36.667 -19.667 55 -59 55h-28l11 43h62
c70.667 0 106 -30.667 106 -92c0 -16 -2.33301 -33 -7 -51l-43 -174c-3.33301 -15.333 -5 -27.333 -5 -36c0 -44 30 -67 90 -69l-11 -42c-35.333 -2 -64.5 -10.5 -87.5 -25.5s-39.5 -41.833 -49.5 -80.5l-44 -174c-11.333 -44 -31.833 -79 -61.5 -105
s-65.834 -39 -108.501 -39h-62z" />
    <glyph glyph-name="asciitilde" unicode="~" horiz-adv-x="449" 
d="M115 643c6.66699 6.66699 15.668 15 27.001 25s30.666 23.5 57.999 40.5s50.666 25.5 69.999 25.5c18.667 0 35.5 -5.33301 50.5 -16s28.833 -21.167 41.5 -31.5s25.667 -15.5 39 -15.5c31.333 0 68.666 16.333 111.999 49l16 -23c-6.66699 -6.66699 -15.5 -15 -26.5 -25
s-30.167 -23.5 -57.5 -40.5s-50.666 -25.5 -69.999 -25.5c-18.667 0 -35.667 5.33301 -51 16s-29.333 21.167 -42 31.5s-25.667 15.5 -39 15.5c-29.333 0 -66.666 -16.333 -111.999 -49z" />
    <glyph glyph-name="nonbreakingspace" unicode="&#xa0;" horiz-adv-x="241" 
 />
    <glyph glyph-name="exclamdown" unicode="&#xa1;" horiz-adv-x="260" 
d="M167.005 292.013l-103.993 -491.97h-95.9941l142.991 491.97h56.9961zM231.001 439.004c0 -17.999 -6.66602 -33.498 -19.999 -46.4971c-13.332 -12.999 -29.3311 -19.499 -47.9971 -19.499c-17.999 0 -33.498 6.5 -46.4971 19.499s-19.498 28.498 -19.498 46.4971
c0 19.332 6.49902 35.498 19.498 48.4971s28.498 19.499 46.4971 19.499c18.666 0 34.665 -6.5 47.9971 -19.499c13.333 -12.999 19.999 -29.165 19.999 -48.4971z" />
    <glyph glyph-name="cent" unicode="&#xa2;" horiz-adv-x="486" 
d="M130 -140l33.999 135.998c-36 5.33301 -65 19.666 -87 42.999c-29.333 30.667 -44 74.334 -44 131.001c0 40 6.5 79.667 19.5 119s31.333 75.333 55 108s54.167 59 91.5 79c28.667 16 59 25.667 91 29l36 143h56l-36 -142c31.333 -2.66699 57 -10 77 -22
c25.333 -15.333 38 -35.666 38 -60.999c0 -18 -6 -31.833 -18 -41.5s-26.667 -14.5 -44 -14.5c-12.667 0 -24.667 2.33301 -36 7c2.66699 14.667 4 25.667 4 33c0 31.333 -10.333 50.333 -31 57l-105 -420c7.33301 -0.666992 21.833 -0.666992 43.5 0
s53.834 8.66699 96.501 24l10 -31c-52.667 -27.333 -106.667 -41.666 -162 -42.999l-33 -134h-56zM190.999 383.998c-36.667 -55.333 -55 -124.001 -55 -206.001c0 -55.333 14.667 -93.666 44 -114.999l99 397c-32 -10.667 -61.333 -36 -88 -76z" />
    <glyph glyph-name="sterling" unicode="&#xa3;" horiz-adv-x="586" 
d="M-12 36c133.333 90.667 200 182.665 200 275.998c0 9.33301 -0.333008 16.333 -1 21h-123l10 42l105 7c-12.667 51.333 -19.834 84.333 -21.501 99s-2.5 27.334 -2.5 38.001c0 56.667 21 102.334 63 137.001s94.667 52 158 52c59.333 0 106.666 -11.167 141.999 -33.5
s53 -52.166 53 -89.499c0 -23.333 -8.66699 -41 -26 -53s-38.666 -18 -63.999 -18h-14c4 16 6 31.333 6 46c0 31.333 -8.66699 56.666 -26 75.999s-40 29 -68 29c-40 0 -71.333 -14.5 -94 -43.5s-34 -66.5 -34 -112.5c0.666992 -28 6.33398 -68 17.001 -120l147 11l-26 -67
h-116c0 -82 -44.667 -160.667 -134 -236h265l74 108h39l-71 -205h-451z" />
    <glyph glyph-name="currency" unicode="&#xa4;" horiz-adv-x="580" 
d="M39 172l77 64.999c-9.33301 21.333 -14 45.333 -14 72c0 65.333 26.333 125.333 79 180l-45 64l46 35l44 -62c41.333 29.333 86.333 44 135 44c42 0 77 -12.667 105 -38l77 63l34 -43l-77 -64c8 -22 12 -44.667 12 -68c0 -34.667 -7.66699 -69.167 -23 -103.5
s-35.333 -63.166 -60 -86.499l45 -65l-45 -35l-45 61c-40 -28 -82 -42 -126 -42c-42.667 0 -79 14 -109 42l-75 -63zM181 330.999c0 -36.667 9.00098 -66.166 27.001 -88.499s43 -33.5 75 -33.5c40 0 74.167 18.333 102.5 55s42.5 76.667 42.5 120
c0 35.333 -8.83301 64.833 -26.5 88.5s-42.834 35.5 -75.501 35.5c-40 0 -74.167 -18.333 -102.5 -55s-42.5 -77.334 -42.5 -122.001z" />
    <glyph glyph-name="yen" unicode="&#xa5;" horiz-adv-x="701" 
d="M126 196l11 42l162 9l16 65h-160l11 42l132 7l-102 278l-74 20l10 41h237l-10 -41l-64 -13l93 -261l204 254l-74 20l10 41h231l-10 -41l-76 -22l-216 -267l144 9l-26 -67h-163l-14 -59l174 10l-26 -67h-162l-33 -133l88 -22l-10 -41h-269l10 41l84 22l33 133h-161z" />
    <glyph glyph-name="brokenbar" unicode="&#xa6;" horiz-adv-x="311" 
d="M115 160h65v-400h-65v400zM115 360v400h65v-400h-65z" />
    <glyph glyph-name="section" unicode="&#xa7;" horiz-adv-x="518" 
d="M0 -43l38.998 156h33l8 -132c20.667 -8 46.334 -12 77.001 -12c45.333 0 81.833 9 109.5 27s41.5 44.333 41.5 79c0 11.333 -1.66699 21 -5 29s-7.33301 14.667 -12 20c-10.667 13.333 -37.5 32.666 -80.5 57.999s-72 45.833 -87 61.5s-26 31 -33 46
s-10.5 31.5 -10.5 49.5c0 58 36.667 104.333 110 139c-28 28 -42 61.333 -42 100c0 56 21.833 100.167 65.5 132.5s96.5 48.5 158.5 48.5c54.667 0 103.334 -8.66699 146.001 -26l-39 -157h-33l-7 127c-22 4.66699 -43 7 -63 7c-38 0 -72 -8.33301 -102 -25
s-45 -42.334 -45 -77.001c0 -12 2.16699 -22.833 6.5 -32.5s11.5 -18.834 21.5 -27.501s19.667 -16 29 -22c47.333 -27.333 76.5 -44.666 87.5 -51.999s25 -18 42 -32s29.333 -29.167 37 -45.5s11.5 -34.166 11.5 -53.499c0 -64 -34.333 -115 -103 -153
c24.667 -26.667 37 -58.667 37 -96c0 -57.333 -22 -101.166 -66 -131.499s-98.667 -45.5 -164 -45.5c-67.333 0 -123.333 13.333 -168 40zM160.998 364c0 -5.33301 0.500977 -10.1689 1.50098 -14.502s2.66699 -8.66602 5 -12.999s4.66602 -8.16602 6.99902 -11.499
s5.83301 -7.16602 10.5 -11.499s8.5 -7.66602 11.5 -9.99902s23.167 -15.5 60.5 -39.5c32 -18.667 55 -33.334 69 -44.001c32 24 48 54.667 48 92c0 39.333 -33.333 76 -100 110c-20 9.33301 -36.333 18.666 -49 27.999c-42.667 -22 -64 -50.667 -64 -86z" />
    <glyph glyph-name="dieresis" unicode="&#xa8;" horiz-adv-x="396" 
d="M30 693c0 18 6.5 33.333 19.5 46s28.5 19 46.5 19s33.333 -6.33301 46 -19s19 -28 19 -46c0 -18.667 -6.33301 -34.334 -19 -47.001s-28 -19 -46 -19s-33.5 6.33301 -46.5 19s-19.5 28.334 -19.5 47.001zM230 693c0 18 6.5 33.333 19.5 46s28.5 19 46.5 19
s33.333 -6.33301 46 -19s19 -28 19 -46c0 -18.667 -6.33301 -34.334 -19 -47.001s-28 -19 -46 -19s-33.5 6.33301 -46.5 19s-19.5 28.334 -19.5 47.001z" />
    <glyph glyph-name="copyright" unicode="&#xa9;" horiz-adv-x="858" 
d="M185 100c-71.333 71.333 -106.998 157.666 -106.998 258.999c0 50.667 9.66699 98.334 29 143.001s45.833 83.667 79.5 117s72.667 59.833 117 79.5s91.5 29.5 141.5 29.5s97.333 -9.83301 142 -29.5s83.667 -46.167 117 -79.5s59.833 -72.5 79.5 -117.5
s29.5 -92.5 29.5 -142.5s-9.66699 -97.333 -29 -142s-45.833 -83.5 -79.5 -116.5s-72.834 -59.167 -117.501 -78.5s-92 -29 -142 -29c-100.667 0 -187.334 35.667 -260.001 107zM445.002 51c42.667 0 82.667 8.16797 120 24.501s70 38.5 98 66.5s50 60.667 66 98
s24 77 24 119c0 42.667 -8 82.667 -24 120s-38 70 -66 98s-60.667 50.167 -98 66.5s-77.333 24.5 -120 24.5c-42 0 -81.667 -8 -119 -24s-69.833 -38 -97.5 -66s-49.667 -60.833 -66 -98.5s-24.5 -77.834 -24.5 -120.501s8 -82.667 24 -120s38 -70 66 -98s60.667 -50 98 -66
s77 -24 119 -24zM248.002 359.001c0 70.667 18 125 54 163s90.333 57 163 57c39.333 0 77.333 -7.66699 114 -23v-112h-35l-26 84c-18.667 3.33301 -33.667 5 -45 5c-95.333 0 -143 -58 -143 -174c0 -114.667 46.667 -172 140 -172c8.66699 0 16 0.166992 22 0.5
s11 0.833008 15 1.5l45 91h34l-15 -111c-35.333 -18.667 -74 -28 -116 -28c-68 0 -119.5 18.667 -154.5 56s-52.5 91.333 -52.5 162z" />
    <glyph glyph-name="ordfeminine" unicode="&#xaa;" horiz-adv-x="405" 
d="M97 477c0 64 20 118.499 60 163.499s87.667 67.5 143 67.5c42.667 0 78 -9.66699 106 -29l-62 -241h62v-23c-32 -10 -57 -17.333 -75 -22c-12 -4 -25 -6 -39 -6c-13.333 0 -20 6 -20 18c0 4.66699 1.33301 13.334 4 26.001l6 23c-34.667 -44.667 -73 -67 -115 -67
c-21.333 0 -38.333 8 -51 24s-19 38 -19 66zM173 490.999c0 -35.333 11.333 -53 34 -53c14.667 0 30.5 7.5 47.5 22.5s31.5 34.167 43.5 57.5l41 153c-8 2.66699 -16.667 4 -26 4c-43.333 0 -77.5 -18.667 -102.5 -56s-37.5 -80 -37.5 -128z" />
    <glyph glyph-name="guillemotleft" unicode="&#xab;" horiz-adv-x="458" 
d="M40 254l8 32l188 174h47l-143 -190l48 -190h-47zM222 256l7 28l150 147h42l-104 -161l18 -171h-42z" />
    <glyph glyph-name="logicalnot" unicode="&#xac;" horiz-adv-x="593" 
d="M70 326v64h428v-267h-64v203h-364z" />
    <glyph glyph-name="uni00AD" unicode="&#xad;" horiz-adv-x="404" 
d="M84 317v80h260v-80h-260z" />
    <glyph glyph-name="registered" unicode="&#xae;" horiz-adv-x="858" 
d="M185 100c-71.333 71.333 -106.998 157.666 -106.998 258.999c0 50.667 9.66699 98.334 29 143.001s45.833 83.667 79.5 117s72.667 59.833 117 79.5s91.5 29.5 141.5 29.5s97.333 -9.83301 142 -29.5s83.667 -46.167 117 -79.5s59.833 -72.5 79.5 -117.5
s29.5 -92.5 29.5 -142.5s-9.66699 -97.333 -29 -142s-45.833 -83.5 -79.5 -116.5s-72.834 -59.167 -117.501 -78.5s-92 -29 -142 -29c-100.667 0 -187.334 35.667 -260.001 107zM227.002 577c-60 -60 -90 -132.667 -90 -218c0 -42 8.16699 -81.667 24.5 -119
s38.5 -70 66.5 -98s60.667 -50.167 98 -66.5s77 -24.5 119 -24.5s81.667 8.16699 119 24.5s70 38.5 98 66.5s50.167 60.667 66.5 98s24.5 77 24.5 119s-8.16699 81.833 -24.5 119.5s-38.5 70.5 -66.5 98.5s-60.667 50.167 -98 66.5s-77 24.5 -119 24.5
c-85.333 0 -158 -30.333 -218 -91zM257.002 152v28l56 13v338l-56 13v28h170c111.333 0 167 -38.333 167 -115c0 -30 -8.5 -54.667 -25.5 -74s-40.833 -32.333 -71.5 -39l93 -152l53 -13v-27h-113l-105 186h-39v-145l56 -13v-28h-185zM386.002 374h35
c30 0 53.667 7.16699 71 21.5s26 34.833 26 61.5c0 24.667 -8.66699 43.667 -26 57s-41 20 -71 20h-35v-160z" />
    <glyph glyph-name="macron" unicode="&#xaf;" horiz-adv-x="0" 
 />
    <glyph glyph-name="degree" unicode="&#xb0;" horiz-adv-x="258" 
d="M258 461c-39.333 0 -73.333 14.167 -102 42.5s-43 63.166 -43 104.499c0 42 14.5 77 43.5 105s62.833 42 101.5 42s72.834 -14 102.501 -42s44.5 -63 44.5 -105c0 -41.333 -14.333 -76.166 -43 -104.499s-63.334 -42.5 -104.001 -42.5zM257 525
c23.333 0 43.5 8.33301 60.5 25s25.5 36 25.5 58s-8.66699 41.333 -26 58s-37.333 25 -60 25c-20.667 0 -39.5 -8.33301 -56.5 -25s-25.5 -36 -25.5 -58s8.5 -41.333 25.5 -58s35.833 -25 56.5 -25z" />
    <glyph glyph-name="plusminus" unicode="&#xb1;" horiz-adv-x="628" 
d="M72 0v67h449v-67h-449zM72 323v67h185v195h67v-195h197v-67h-197v-196h-67v196h-185z" />
    <glyph glyph-name="twosuperior" unicode="&#xb2;" horiz-adv-x="378" 
d="M63 285l6.99805 35.999l157 169c15.333 18 26 31.167 32 39.5s12.333 18.5 19 30.5s11 22.833 13 32.5s3 19.834 3 30.501c0 17.333 -4.16699 31.166 -12.5 41.499s-19.833 15.5 -34.5 15.5c-16 0 -28.5 -5.83301 -37.5 -17.5s-13.5 -27.167 -13.5 -46.5
c0 -8 0.666992 -20.667 2 -38c-19.333 0 -36 4.83301 -50 14.5s-21 22.834 -21 39.501c0 23.333 11.333 42.166 34 56.499s53.334 21.5 92.001 21.5c36.667 0 65.834 -7.66699 87.501 -23s32.5 -38.333 32.5 -69c0 -15.333 -2.5 -29.666 -7.5 -42.999s-14.5 -28 -28.5 -44
s-27.667 -30.333 -41 -43l-139 -131h139l40 61h28l-48 -133h-253z" />
    <glyph glyph-name="threesuperior" unicode="&#xb3;" horiz-adv-x="367" 
d="M59 311l12.998 31.001c30.667 -19.333 62.334 -29 95.001 -29c31.333 0 56.333 8 75 24s28 38 28 66c0 24.667 -6.83301 44.167 -20.5 58.5s-37.167 22.833 -70.5 25.5l7 35c29.333 0.666992 54 12.167 74 34.5s30 47.833 30 76.5c0 15.333 -4 27.166 -12 35.499
s-17.667 12.5 -29 12.5c-36.667 0 -55 -23 -55 -69c0 -11.333 1 -22 3 -32c-19.333 0 -35.5 4.5 -48.5 13.5s-19.5 21.833 -19.5 38.5c0 22 11.5 40.167 34.5 54.5s53.5 21.5 91.5 21.5c34 0 61.333 -7.33301 82 -22s31 -37 31 -67c0 -28.667 -11.167 -53.5 -33.5 -74.5
s-49.166 -34.167 -80.499 -39.5v-1c30 -2.66699 53.667 -13 71 -31s26 -40 26 -66c0 -42 -15.333 -74.333 -46 -97s-68 -34 -112 -34c-47.333 0 -92 11.667 -134 35z" />
    <glyph glyph-name="acute" unicode="&#xb4;" horiz-adv-x="201" 
d="M10 591l101 175.999c40.667 -7.33301 72 -24.666 94 -51.999l-159 -151z" />
    <glyph glyph-name="mu" unicode="&#xb5;" horiz-adv-x="622" 
d="M-22 -211c0 4.66699 1.33301 13 4 25l171 686h95l-86 -345c-3.33301 -14.667 -5 -26.667 -5 -36c0 -22 6.16699 -39 18.5 -51s29.833 -18 52.5 -18c40.667 0 87.667 17 141 51l99 399h95l-90 -362c-2.66699 -10.667 -4 -21.334 -4 -32.001c0 -31.333 15.333 -47 46 -47
h12l-7 -27c-36.667 -31.333 -72.334 -47 -107.001 -47c-15.333 0 -27.666 4.16699 -36.999 12.5s-15 16.333 -17 24s-3 15.5 -3 23.5v5c-56 -43.333 -110.667 -65 -164 -65c-44 0 -74 15.667 -90 47c-16 -54 -24 -103.333 -24 -148c0 -37.333 7 -61 21 -71
c-0.666992 -1.33301 -1.5 -3.5 -2.5 -6.5s-3.83301 -8 -8.5 -15s-9.83398 -13.167 -15.501 -18.5s-13.167 -10.166 -22.5 -14.499s-19.666 -6.5 -30.999 -6.5c-27.333 0 -41 12.333 -41 37z" />
    <glyph glyph-name="mu" unicode="&#x3bc;" horiz-adv-x="622" 
d="M-22 -211c0 4.66699 1.33301 13 4 25l171 686h95l-86 -345c-3.33301 -14.667 -5 -26.667 -5 -36c0 -22 6.16699 -39 18.5 -51s29.833 -18 52.5 -18c40.667 0 87.667 17 141 51l99 399h95l-90 -362c-2.66699 -10.667 -4 -21.334 -4 -32.001c0 -31.333 15.333 -47 46 -47
h12l-7 -27c-36.667 -31.333 -72.334 -47 -107.001 -47c-15.333 0 -27.666 4.16699 -36.999 12.5s-15 16.333 -17 24s-3 15.5 -3 23.5v5c-56 -43.333 -110.667 -65 -164 -65c-44 0 -74 15.667 -90 47c-16 -54 -24 -103.333 -24 -148c0 -37.333 7 -61 21 -71
c-0.666992 -1.33301 -1.5 -3.5 -2.5 -6.5s-3.83301 -8 -8.5 -15s-9.83398 -13.167 -15.501 -18.5s-13.167 -10.166 -22.5 -14.499s-19.666 -6.5 -30.999 -6.5c-27.333 0 -41 12.333 -41 37z" />
    <glyph glyph-name="paragraph" unicode="&#xb6;" horiz-adv-x="599" 
d="M101 517c0 66 23.333 123 70 171s111.667 72 195 72h292l-9 -38l-85 -20l-203 -814h-58l201 809h-89l-201 -809h-58l124 498h-9c-113.333 0 -170 43.667 -170 131z" />
    <glyph glyph-name="periodcentered" unicode="&#xb7;" horiz-adv-x="262" 
d="M54 300c0 20.667 7.66699 38.5 23 53.5s33.666 22.5 54.999 22.5c20.667 0 38.5 -7.5 53.5 -22.5s22.5 -32.833 22.5 -53.5c0 -22 -7.5 -40.5 -22.5 -55.5s-32.833 -22.5 -53.5 -22.5c-21.333 0 -39.666 7.5 -54.999 22.5s-23 33.5 -23 55.5z" />
    <glyph glyph-name="cedilla" unicode="&#xb8;" horiz-adv-x="333" 
d="M-1 -229l11.999 38.998c8.66699 -2.66699 21 -4 37 -4c24.667 0 46.834 5.33301 66.501 16s29.5 28.334 29.5 53.001c0 32.667 -19.667 49 -59 49l44 85h44l-24 -50c49.333 -2.66699 74 -25.667 74 -69c0 -37.333 -15.667 -68.166 -47 -92.499s-67.333 -36.5 -108 -36.5
c-24 0 -47 3.33301 -69 10z" />
    <glyph glyph-name="onesuperior" unicode="&#xb9;" horiz-adv-x="238" 
d="M92 285l90 355l-67 -28l-8 32l134 65h30l-105 -424h-74z" />
    <glyph glyph-name="ordmasculine" unicode="&#xba;" horiz-adv-x="392" 
d="M97 500c0 56.667 19.667 105.5 59 146.5s86.333 61.5 141 61.5c39.333 0 69.5 -10.333 90.5 -31s31.5 -48 31.5 -82c0 -56 -19.5 -104.667 -58.5 -146s-86.5 -62 -142.5 -62c-40 0 -70.167 10.167 -90.5 30.5s-30.5 47.833 -30.5 82.5zM180 486
c0 -43.333 15.333 -65 46 -65c29.333 0 55 20.833 77 62.5s33 83.5 33 125.5c0 43.333 -15.667 65 -47 65c-29.333 0 -54.833 -20.667 -76.5 -62s-32.5 -83.333 -32.5 -126z" />
    <glyph glyph-name="guillemotright" unicode="&#xbb;" horiz-adv-x="459" 
d="M26 109l104 161l-18 171h42l71 -157l-7 -28l-150 -147h-42zM164 80l143 190l-48 190h47l101 -174l-8 -32l-188 -174h-47z" />
    <glyph glyph-name="onequarter" unicode="&#xbc;" horiz-adv-x="729" 
d="M79 0l466 700h66l-466 -700h-66zM113 285l90 355l-67 -28l-8 32l134 65h30l-105 -424h-74zM349 113l7 32l276 280h39l-66 -267h43l-11 -45h-44l-28 -112h-67l29 112h-178zM427 158h111l37 148z" />
    <glyph glyph-name="onehalf" unicode="&#xbd;" horiz-adv-x="791" 
d="M80 0l466 700h66l-466 -700h-66zM114 285l90 355l-67 -28l-8 32l134 65h30l-105 -424h-74zM410 2l6.99805 35.999l157 169c15.333 18 26 31.167 32 39.5s12.333 18.5 19 30.5s11 22.833 13 32.5s3 19.834 3 30.501c0 17.333 -4.16699 31.166 -12.5 41.499
s-19.833 15.5 -34.5 15.5c-16 0 -28.5 -5.83301 -37.5 -17.5s-13.5 -27.167 -13.5 -46.5c0 -8 0.666992 -20.667 2 -38c-19.333 0 -36 4.83301 -50 14.5s-21 22.834 -21 39.501c0 23.333 11.333 42.166 34 56.499s53.334 21.5 92.001 21.5
c36.667 0 65.834 -7.66699 87.501 -23s32.5 -38.333 32.5 -69c0 -15.333 -2.5 -29.666 -7.5 -42.999s-14.5 -28 -28.5 -44s-27.667 -30.333 -41 -43l-139 -131h139l40 61h28l-48 -133h-253z" />
    <glyph glyph-name="threequarters" unicode="&#xbe;" horiz-adv-x="781" 
d="M178 0l466 700h66l-466 -700h-66zM398 113l7 32l276 280h39l-66 -267h43l-11 -45h-44l-28 -112h-67l29 112h-178zM476 158h111l37 148zM59 311l12.998 31.001c30.667 -19.333 62.334 -29 95.001 -29c31.333 0 56.333 8 75 24s28 38 28 66
c0 24.667 -6.83301 44.167 -20.5 58.5s-37.167 22.833 -70.5 25.5l7 35c29.333 0.666992 54 12.167 74 34.5s30 47.833 30 76.5c0 15.333 -4 27.166 -12 35.499s-17.667 12.5 -29 12.5c-36.667 0 -55 -23 -55 -69c0 -11.333 1 -22 3 -32c-19.333 0 -35.5 4.5 -48.5 13.5
s-19.5 21.833 -19.5 38.5c0 22 11.5 40.167 34.5 54.5s53.5 21.5 91.5 21.5c34 0 61.333 -7.33301 82 -22s31 -37 31 -67c0 -28.667 -11.167 -53.5 -33.5 -74.5s-49.166 -34.167 -80.499 -39.5v-1c30 -2.66699 53.667 -13 71 -31s26 -40 26 -66
c0 -42 -15.333 -74.333 -46 -97s-68 -34 -112 -34c-47.333 0 -92 11.667 -134 35z" />
    <glyph glyph-name="questiondown" unicode="&#xbf;" horiz-adv-x="455" 
d="M321.007 -89.9639c0 -33.998 -17.3291 -62.1631 -51.9932 -84.4951c-34.665 -22.332 -82.6621 -33.498 -143.991 -33.498c-49.9971 0 -90.9951 11.333 -122.993 33.998s-47.9971 53.6631 -47.9971 92.9941c0 35.3311 9.99902 65.9961 29.998 91.9951
c19.999 25.998 44.1641 46.4971 72.4951 61.4961s56.8291 28.8311 85.4941 41.4971s52.9971 27.832 72.9961 45.4971c19.999 17.666 29.998 37.832 29.998 60.4971c0 14.665 -4.16602 26.4971 -12.499 35.4961s-18.832 13.499 -31.498 13.499
c-15.999 0 -32.3311 -6.33301 -48.9961 -18.998l-23.999 30.998c21.999 21.332 49.9971 31.998 83.9951 31.998c24.665 0 46.8301 -8.33301 66.4951 -24.999c19.665 -16.665 29.498 -38.9971 29.498 -66.9961c0 -29.998 -8.66602 -56.6631 -25.998 -79.9951
c-17.333 -23.3311 -38.332 -42.6631 -62.9971 -57.9961l-74.9961 -44.9971c-24.665 -14.666 -45.6641 -32.498 -62.9971 -53.4971c-17.332 -20.999 -25.998 -45.1641 -25.998 -72.4951c0 -24.665 7.5 -43.8311 22.499 -57.4971
c14.999 -13.665 34.8311 -20.498 59.4961 -20.498c26.665 0 47.8301 9.33301 63.4961 27.998c15.665 18.665 23.498 42.9971 23.498 72.9951c0 12.666 -2.33301 29.332 -6.99902 49.9971c31.3311 0 56.4961 -6.33301 75.4951 -18.999
c18.999 -12.665 28.498 -31.3301 28.498 -55.9951zM326.01 439.004c0 -17.999 -6.66602 -33.498 -19.999 -46.4971c-13.332 -12.999 -29.3311 -19.499 -47.9971 -19.499c-17.999 0 -33.498 6.5 -46.4971 19.499s-19.499 28.498 -19.499 46.4971
c0 19.332 6.5 35.498 19.499 48.4971s28.498 19.499 46.4971 19.499c18.666 0 34.665 -6.5 47.9971 -19.499c13.333 -12.999 19.999 -29.165 19.999 -48.4971z" />
    <glyph glyph-name="Agrave" unicode="&#xc0;" 
d="M-78 0l10 41l92 22l380 637h55l47 -638l79 -21l-10 -41h-250l10 41l76 18l-12 142h-229l-85 -139l79 -21l-10 -41h-232zM204 255h190l-18 291zM269 811c8.66699 17.333 20.332 33.333 34.999 48s30.334 25 47.001 31l134 -119l-27 -31z" />
    <glyph glyph-name="Aacute" unicode="&#xc1;" 
d="M-78 0l10 41l92 22l380 637h55l47 -638l79 -21l-10 -41h-250l10 41l76 18l-12 142h-229l-85 -139l79 -21l-10 -41h-232zM204 255h190l-18 291zM372 771l133.998 119c16.667 -6 32.334 -16.333 47.001 -31s26.334 -30.667 35.001 -48l-189 -71z" />
    <glyph glyph-name="Acircumflex" unicode="&#xc2;" 
d="M-78 0l10 41l92 22l380 637h55l47 -638l79 -21l-10 -41h-250l10 41l76 18l-12 142h-229l-85 -139l79 -21l-10 -41h-232zM204 255h190l-18 291zM264 772l155 122h84l96 -122l-45 -24l-106 75l-138 -75z" />
    <glyph glyph-name="Atilde" unicode="&#xc3;" 
d="M-78 0l10 41l92 22l380 637h55l47 -638l79 -21l-10 -41h-250l10 41l76 18l-12 142h-229l-85 -139l79 -21l-10 -41h-232zM204 255h190l-18 291zM248 814c20.667 24 42.001 42.667 64.001 56s42.667 20 62 20c24.667 0 50.667 -10.5 78 -31.5s50 -31.5 68 -31.5
c26 0 53.667 12.333 83 37l20 -26c-7.33301 -10 -24.5 -25.167 -51.5 -45.5s-53.167 -30.5 -78.5 -30.5c-27.333 0 -53.833 10.5 -79.5 31.5s-47.834 31.5 -66.501 31.5c-12.667 0 -23 -2 -31 -6s-23.333 -14.333 -46 -31z" />
    <glyph glyph-name="Adieresis" unicode="&#xc4;" 
d="M-78 0l10 41l92 22l380 637h55l47 -638l79 -21l-10 -41h-250l10 41l76 18l-12 142h-229l-85 -139l79 -21l-10 -41h-232zM204 255h190l-18 291zM271 828c0 18 6.5 33.333 19.5 46s28.5 19 46.5 19s33.333 -6.33301 46 -19s19 -28 19 -46
c0 -18.667 -6.33301 -34.334 -19 -47.001s-28 -19 -46 -19s-33.5 6.33301 -46.5 19s-19.5 28.334 -19.5 47.001zM470 828c0 18 6.5 33.333 19.5 46s28.5 19 46.5 19s33.333 -6.33301 46 -19s19 -28 19 -46c0 -18.667 -6.33301 -34.334 -19 -47.001s-28 -19 -46 -19
s-33.5 6.33301 -46.5 19s-19.5 28.334 -19.5 47.001z" />
    <glyph glyph-name="Aring" unicode="&#xc5;" horiz-adv-x="644" 
d="M-78 0l9.99902 41l92 22l378 634c-12 5.33301 -23 13 -33 23c-21.333 21.333 -32 47.333 -32 78c0 31.333 10.833 57.333 32.5 78s46.834 31 75.501 31s54 -10.333 76 -31s33 -46.667 33 -78c0 -30.667 -10.667 -56.667 -32 -78c-18 -17.333 -38.667 -27.333 -62 -30
l46 -628l79 -21l-10 -41h-250l10 41l76 18l-12 142h-229l-85 -139l79 -21l-10 -41h-232zM203.999 255h190l-18 291zM444.999 743c15.333 0 28.5 5.5 39.5 16.5s16.5 23.833 16.5 38.5s-5.66699 27.5 -17 38.5s-24.333 16.5 -39 16.5s-27.5 -5.5 -38.5 -16.5
s-16.5 -23.833 -16.5 -38.5s5.5 -27.5 16.5 -38.5s23.833 -16.5 38.5 -16.5z" />
    <glyph glyph-name="AE" unicode="&#xc6;" horiz-adv-x="1033" 
d="M-82 0l10 41l118 28l635 631h378l-51 -205h-38l-6 143h-202l-65 -257l203 20l-20 -84l-194 18l-68 -273h201l109 154h38l-81 -216h-465l10 41l92 22l34 138h-296l-145 -143l65 -17l-10 -41h-252zM315 255h255l83 332z" />
    <glyph glyph-name="Ccedilla" unicode="&#xc7;" horiz-adv-x="615" 
d="M143 -229l12.001 39.0039c8.66699 -2.66699 21 -4 37 -4c24.667 0 46.834 5.33301 66.501 16s29.5 28.334 29.5 53.001c0 32.667 -19.667 49 -59 49l36 70c-32.667 2 -61.667 8.33301 -87 19c-31.333 13.333 -55.666 31.666 -72.999 54.999s-30 49.166 -38 77.499
s-12 59.5 -12 93.5c0 77.333 16.333 151.666 49 222.999s80 130.166 142 176.499s131.333 69.5 208 69.5c37.333 0 72.166 -3.33301 104.499 -10s55.5 -13.334 69.5 -20.001l20 -10l-46 -185h-39l-6 157c-28 6.66699 -52.667 10 -74 10c-62 0 -118.333 -18.833 -169 -56.5
s-89.834 -87.334 -117.501 -149.001s-41.5 -128.167 -41.5 -199.5c0 -54 11.333 -99.167 34 -135.5s61 -54.5 115 -54.5c29.333 0 58.666 3 87.999 9l114 162h39l-71 -184c-56 -28.667 -111 -44.667 -165 -48l-16 -35c49.333 -2.66699 74 -25.667 74 -69
c0 -37.333 -15.667 -68.166 -47 -92.499s-67.333 -36.5 -108 -36.5c-24 0 -47 3.33301 -69 10z" />
    <glyph glyph-name="Egrave" unicode="&#xc8;" horiz-adv-x="593" 
d="M-20 0l10 41l92 22l143 574l-81 22l10 41h465l-51 -205h-38l-6 143h-202l-65 -257l203 20l-20 -84l-194 18l-68 -273h201l109 154h38l-81 -216h-465zM261 811c8.66699 17.333 20.332 33.333 34.999 48s30.334 25 47.001 31l134 -119l-27 -31z" />
    <glyph glyph-name="Eacute" unicode="&#xc9;" horiz-adv-x="593" 
d="M-20 0l10 41l92 22l143 574l-81 22l10 41h465l-51 -205h-38l-6 143h-202l-65 -257l203 20l-20 -84l-194 18l-68 -273h201l109 154h38l-81 -216h-465zM360 771l133.998 119c16.667 -6 32.334 -16.333 47.001 -31s26.334 -30.667 35.001 -48l-189 -71z" />
    <glyph glyph-name="Ecircumflex" unicode="&#xca;" horiz-adv-x="593" 
d="M-20 0l10 41l92 22l143 574l-81 22l10 41h465l-51 -205h-38l-6 143h-202l-65 -257l203 20l-20 -84l-194 18l-68 -273h201l109 154h38l-81 -216h-465zM261 781l155 122h84l96 -122l-45 -24l-106 75l-138 -75z" />
    <glyph glyph-name="Edieresis" unicode="&#xcb;" horiz-adv-x="593" 
d="M-20 0l10 41l92 22l143 574l-81 22l10 41h465l-51 -205h-38l-6 143h-202l-65 -257l203 20l-20 -84l-194 18l-68 -273h201l109 154h38l-81 -216h-465zM292 828c0 18 6.5 33.333 19.5 46s28.5 19 46.5 19s33.333 -6.33301 46 -19s19 -28 19 -46
c0 -18.667 -6.33301 -34.334 -19 -47.001s-28 -19 -46 -19s-33.5 6.33301 -46.5 19s-19.5 28.334 -19.5 47.001zM491 828c0 18 6.5 33.333 19.5 46s28.5 19 46.5 19s33.333 -6.33301 46 -19s19 -28 19 -46c0 -18.667 -6.33301 -34.334 -19 -47.001s-28 -19 -46 -19
s-33.5 6.33301 -46.5 19s-19.5 28.334 -19.5 47.001z" />
    <glyph glyph-name="Igrave" unicode="&#xcc;" horiz-adv-x="375" 
d="M-20 0l10 41l92 22l143 574l-81 22l10 41h270l-10 -41l-93 -22l-143 -574l82 -22l-10 -41h-270zM167 811c8.66699 17.333 20.332 33.333 34.999 48s30.334 25 47.001 31l134 -119l-27 -31z" />
    <glyph glyph-name="Iacute" unicode="&#xcd;" horiz-adv-x="375" 
d="M-20 0l10 41l92 22l143 574l-81 22l10 41h270l-10 -41l-93 -22l-143 -574l82 -22l-10 -41h-270zM226 771l133.998 119c16.667 -6 32.334 -16.333 47.001 -31s26.334 -30.667 35.001 -48l-189 -71z" />
    <glyph glyph-name="Icircumflex" unicode="&#xce;" horiz-adv-x="375" 
d="M-20 0l10 41l92 22l143 574l-81 22l10 41h270l-10 -41l-93 -22l-143 -574l82 -22l-10 -41h-270zM132 781l155 122h84l96 -122l-45 -24l-106 75l-138 -75z" />
    <glyph glyph-name="Idieresis" unicode="&#xcf;" horiz-adv-x="375" 
d="M-20 0l10 41l92 22l143 574l-81 22l10 41h270l-10 -41l-93 -22l-143 -574l82 -22l-10 -41h-270zM159 828c0 18 6.5 33.333 19.5 46s28.5 19 46.5 19s33.333 -6.33301 46 -19s19 -28 19 -46c0 -18.667 -6.33301 -34.334 -19 -47.001s-28 -19 -46 -19
s-33.5 6.33301 -46.5 19s-19.5 28.334 -19.5 47.001zM358 828c0 18 6.5 33.333 19.5 46s28.5 19 46.5 19s33.333 -6.33301 46 -19s19 -28 19 -46c0 -18.667 -6.33301 -34.334 -19 -47.001s-28 -19 -46 -19s-33.5 6.33301 -46.5 19s-19.5 28.334 -19.5 47.001z" />
    <glyph glyph-name="Eth" unicode="&#xd0;" horiz-adv-x="698" 
d="M51 328v47.001h109l66 262l-81 22l10 41h216c98 0 172.167 -20.833 222.5 -62.5s75.5 -103.167 75.5 -184.5c0 -73.333 -12.667 -139.333 -38 -198s-60 -106.334 -104 -143.001s-94 -64.5 -150 -83.5s-116 -28.5 -180 -28.5h-216l10 41l92 22l66 265h-98zM179 62.001h33
c104.667 0 190.5 38.333 257.5 115s100.5 170 100.5 280c0 120.667 -71.333 181 -214 181h-33l-66 -263h162v-47h-174z" />
    <glyph glyph-name="Ntilde" unicode="&#xd1;" horiz-adv-x="741" 
d="M-20 0l10 41l92 22l143 574l-81 22l10 41h136l235 -500l109 437l-80 22l10 41h237l-10 -41l-93 -22l-158 -637h-26l-251 532l-117 -469l81 -22l-10 -41h-237zM310 809c20.667 24 42.001 42.667 64.001 56s42.667 20 62 20c24.667 0 50.667 -10.5 78 -31.5
s50 -31.5 68 -31.5c26 0 53.667 12.333 83 37l20 -26c-7.33301 -10 -24.5 -25.167 -51.5 -45.5s-53.167 -30.5 -78.5 -30.5c-27.333 0 -53.833 10.5 -79.5 31.5s-47.834 31.5 -66.501 31.5c-12.667 0 -23 -2 -31 -6s-23.333 -14.333 -46 -31z" />
    <glyph glyph-name="Ograve" unicode="&#xd2;" horiz-adv-x="719" 
d="M54 233c0 80.667 16.334 157.001 49.001 229.001s80.167 131 142.5 177s132.166 69 209.499 69c78 0 137.167 -22.5 177.5 -67.5s60.5 -102.833 60.5 -173.5c0 -59.333 -9.66699 -117.333 -29 -174s-45.833 -107.334 -79.5 -152.001s-76 -80.5 -127 -107.5
s-105.833 -40.5 -164.5 -40.5c-78 0 -137.333 22.5 -178 67.5s-61 102.5 -61 172.5zM156.001 224.001c0 -54.667 12.167 -98 36.5 -130s60.5 -48 108.5 -48c45.333 0 86.833 14 124.5 42s68.167 63.833 91.5 107.5s41.5 90.167 54.5 139.5s19.5 97 19.5 143
c0 54 -12.333 96.667 -37 128s-61 47 -109 47c-44 0 -85 -14 -123 -42s-68.667 -63.667 -92 -107s-41.5 -89.5 -54.5 -138.5s-19.5 -96.167 -19.5 -141.5zM324.001 811.001c8.66699 17.333 20.332 33.333 34.999 48s30.334 25 47.001 31l134 -119l-27 -31z" />
    <glyph glyph-name="Oacute" unicode="&#xd3;" horiz-adv-x="719" 
d="M54 233c0 80.667 16.334 157.001 49.001 229.001s80.167 131 142.5 177s132.166 69 209.499 69c78 0 137.167 -22.5 177.5 -67.5s60.5 -102.833 60.5 -173.5c0 -59.333 -9.66699 -117.333 -29 -174s-45.833 -107.334 -79.5 -152.001s-76 -80.5 -127 -107.5
s-105.833 -40.5 -164.5 -40.5c-78 0 -137.333 22.5 -178 67.5s-61 102.5 -61 172.5zM156.001 224.001c0 -54.667 12.167 -98 36.5 -130s60.5 -48 108.5 -48c45.333 0 86.833 14 124.5 42s68.167 63.833 91.5 107.5s41.5 90.167 54.5 139.5s19.5 97 19.5 143
c0 54 -12.333 96.667 -37 128s-61 47 -109 47c-44 0 -85 -14 -123 -42s-68.667 -63.667 -92 -107s-41.5 -89.5 -54.5 -138.5s-19.5 -96.167 -19.5 -141.5zM387.001 771.001l133.998 119c16.667 -6 32.334 -16.333 47.001 -31s26.334 -30.667 35.001 -48l-189 -71z" />
    <glyph glyph-name="Ocircumflex" unicode="&#xd4;" horiz-adv-x="719" 
d="M54 233c0 80.667 16.334 157.001 49.001 229.001s80.167 131 142.5 177s132.166 69 209.499 69c78 0 137.167 -22.5 177.5 -67.5s60.5 -102.833 60.5 -173.5c0 -59.333 -9.66699 -117.333 -29 -174s-45.833 -107.334 -79.5 -152.001s-76 -80.5 -127 -107.5
s-105.833 -40.5 -164.5 -40.5c-78 0 -137.333 22.5 -178 67.5s-61 102.5 -61 172.5zM156.001 224.001c0 -54.667 12.167 -98 36.5 -130s60.5 -48 108.5 -48c45.333 0 86.833 14 124.5 42s68.167 63.833 91.5 107.5s41.5 90.167 54.5 139.5s19.5 97 19.5 143
c0 54 -12.333 96.667 -37 128s-61 47 -109 47c-44 0 -85 -14 -123 -42s-68.667 -63.667 -92 -107s-41.5 -89.5 -54.5 -138.5s-19.5 -96.167 -19.5 -141.5zM313.001 777.001l155 122h84l96 -122l-45 -24l-106 75l-138 -75z" />
    <glyph glyph-name="Otilde" unicode="&#xd5;" horiz-adv-x="719" 
d="M54 233c0 80.667 16.334 157.001 49.001 229.001s80.167 131 142.5 177s132.166 69 209.499 69c78 0 137.167 -22.5 177.5 -67.5s60.5 -102.833 60.5 -173.5c0 -59.333 -9.66699 -117.333 -29 -174s-45.833 -107.334 -79.5 -152.001s-76 -80.5 -127 -107.5
s-105.833 -40.5 -164.5 -40.5c-78 0 -137.333 22.5 -178 67.5s-61 102.5 -61 172.5zM156.001 224.001c0 -54.667 12.167 -98 36.5 -130s60.5 -48 108.5 -48c45.333 0 86.833 14 124.5 42s68.167 63.833 91.5 107.5s41.5 90.167 54.5 139.5s19.5 97 19.5 143
c0 54 -12.333 96.667 -37 128s-61 47 -109 47c-44 0 -85 -14 -123 -42s-68.667 -63.667 -92 -107s-41.5 -89.5 -54.5 -138.5s-19.5 -96.167 -19.5 -141.5zM298.001 819.001c20.667 24 42.001 42.667 64.001 56s42.667 20 62 20c24.667 0 50.667 -10.5 78 -31.5
s50 -31.5 68 -31.5c26 0 53.667 12.333 83 37l20 -26c-7.33301 -10 -24.5 -25.167 -51.5 -45.5s-53.167 -30.5 -78.5 -30.5c-27.333 0 -53.833 10.5 -79.5 31.5s-47.834 31.5 -66.501 31.5c-12.667 0 -23 -2 -31 -6s-23.333 -14.333 -46 -31z" />
    <glyph glyph-name="Odieresis" unicode="&#xd6;" horiz-adv-x="719" 
d="M54 233c0 80.667 16.334 157.001 49.001 229.001s80.167 131 142.5 177s132.166 69 209.499 69c78 0 137.167 -22.5 177.5 -67.5s60.5 -102.833 60.5 -173.5c0 -59.333 -9.66699 -117.333 -29 -174s-45.833 -107.334 -79.5 -152.001s-76 -80.5 -127 -107.5
s-105.833 -40.5 -164.5 -40.5c-78 0 -137.333 22.5 -178 67.5s-61 102.5 -61 172.5zM156.001 224.001c0 -54.667 12.167 -98 36.5 -130s60.5 -48 108.5 -48c45.333 0 86.833 14 124.5 42s68.167 63.833 91.5 107.5s41.5 90.167 54.5 139.5s19.5 97 19.5 143
c0 54 -12.333 96.667 -37 128s-61 47 -109 47c-44 0 -85 -14 -123 -42s-68.667 -63.667 -92 -107s-41.5 -89.5 -54.5 -138.5s-19.5 -96.167 -19.5 -141.5zM311.001 828.001c0 18 6.5 33.333 19.5 46s28.5 19 46.5 19s33.333 -6.33301 46 -19s19 -28 19 -46
c0 -18.667 -6.33301 -34.334 -19 -47.001s-28 -19 -46 -19s-33.5 6.33301 -46.5 19s-19.5 28.334 -19.5 47.001zM510.001 828.001c0 18 6.5 33.333 19.5 46s28.5 19 46.5 19s33.333 -6.33301 46 -19s19 -28 19 -46c0 -18.667 -6.33301 -34.334 -19 -47.001s-28 -19 -46 -19
s-33.5 6.33301 -46.5 19s-19.5 28.334 -19.5 47.001z" />
    <glyph glyph-name="multiply" unicode="&#xd7;" horiz-adv-x="598" 
d="M99 190l168 167l-168 168l48 47l167 -167l169 168l47 -48l-168 -168l168 -168l-47 -47l-168 168l-168 -167z" />
    <glyph glyph-name="Oslash" unicode="&#xd8;" horiz-adv-x="719" 
d="M150 -40l28.002 54.001c-24.667 10.667 -46 26 -64 46c-40 44.667 -60 102.334 -60 173.001c0 80 16.333 156 49 228s80.167 131.167 142.5 177.5s132.166 69.5 209.499 69.5c30 0 57.333 -3.33301 82 -10l22 41h64l-33 -64c16 -9.33301 30 -21 42 -35
c40.667 -44.667 61 -102.334 61 -173.001c0 -59.333 -9.66699 -117.333 -29 -174s-45.833 -107.334 -79.5 -152.001s-76 -80.5 -127 -107.5s-105.833 -40.5 -164.5 -40.5c-20.667 0 -40.334 1.66699 -59.001 5l-19 -38h-65zM156.002 223.001
c0 -54.667 12 -97.6699 36 -129.003c5.33301 -7.33301 11.333 -13.666 18 -18.999l298 566c-18 8 -39 12 -63 12c-44 0 -85 -14 -123 -42s-68.667 -63.667 -92 -107s-41.5 -89.666 -54.5 -138.999s-19.5 -96.666 -19.5 -141.999zM301.002 46.998c44.667 0 86 14 124 42
s68.667 63.667 92 107s41.5 89.5 54.5 138.5s19.5 96.5 19.5 142.5c0 54.667 -12.333 97.667 -37 129h-1l-291 -555c12 -2.66699 25 -4 39 -4z" />
    <glyph glyph-name="Ugrave" unicode="&#xd9;" horiz-adv-x="737" 
d="M97 169c0 30 4.66699 63.334 14 100.001l92 368l-81 22l10 41h270l-10 -41l-93 -22l-92 -368c-9.33301 -38.667 -14 -67 -14 -85c0 -40.667 13 -70.834 39 -90.501s61.333 -29.5 106 -29.5c50.667 0 94.334 18 131.001 54s63 86.333 79 151l92 368l-80 22l10 41h237
l-10 -41l-93 -22l-92 -368c-22.667 -92 -60.5 -161 -113.5 -207s-118.833 -69 -197.5 -69c-60.667 0 -109.834 14.667 -147.501 44s-56.5 73.333 -56.5 132zM338 811.001c8.66699 17.333 20.332 33.333 34.999 48s30.334 25 47.001 31l134 -119l-27 -31z" />
    <glyph glyph-name="Uacute" unicode="&#xda;" horiz-adv-x="737" 
d="M97 169c0 30 4.66699 63.334 14 100.001l92 368l-81 22l10 41h270l-10 -41l-93 -22l-92 -368c-9.33301 -38.667 -14 -67 -14 -85c0 -40.667 13 -70.834 39 -90.501s61.333 -29.5 106 -29.5c50.667 0 94.334 18 131.001 54s63 86.333 79 151l92 368l-80 22l10 41h237
l-10 -41l-93 -22l-92 -368c-22.667 -92 -60.5 -161 -113.5 -207s-118.833 -69 -197.5 -69c-60.667 0 -109.834 14.667 -147.501 44s-56.5 73.333 -56.5 132zM416 771.001l133.998 119c16.667 -6 32.334 -16.333 47.001 -31s26.334 -30.667 35.001 -48l-189 -71z" />
    <glyph glyph-name="Ucircumflex" unicode="&#xdb;" horiz-adv-x="737" 
d="M97 169c0 30 4.66699 63.334 14 100.001l92 368l-81 22l10 41h270l-10 -41l-93 -22l-92 -368c-9.33301 -38.667 -14 -67 -14 -85c0 -40.667 13 -70.834 39 -90.501s61.333 -29.5 106 -29.5c50.667 0 94.334 18 131.001 54s63 86.333 79 151l92 368l-80 22l10 41h237
l-10 -41l-93 -22l-92 -368c-22.667 -92 -60.5 -161 -113.5 -207s-118.833 -69 -197.5 -69c-60.667 0 -109.834 14.667 -147.501 44s-56.5 73.333 -56.5 132zM341 781.001l155 122h84l96 -122l-45 -24l-106 75l-138 -75z" />
    <glyph glyph-name="Udieresis" unicode="&#xdc;" horiz-adv-x="737" 
d="M97 169c0 30 4.66699 63.334 14 100.001l92 368l-81 22l10 41h270l-10 -41l-93 -22l-92 -368c-9.33301 -38.667 -14 -67 -14 -85c0 -40.667 13 -70.834 39 -90.501s61.333 -29.5 106 -29.5c50.667 0 94.334 18 131.001 54s63 86.333 79 151l92 368l-80 22l10 41h237
l-10 -41l-93 -22l-92 -368c-22.667 -92 -60.5 -161 -113.5 -207s-118.833 -69 -197.5 -69c-60.667 0 -109.834 14.667 -147.501 44s-56.5 73.333 -56.5 132zM344 828.001c0 18 6.5 33.333 19.5 46s28.5 19 46.5 19s33.333 -6.33301 46 -19s19 -28 19 -46
c0 -18.667 -6.33301 -34.334 -19 -47.001s-28 -19 -46 -19s-33.5 6.33301 -46.5 19s-19.5 28.334 -19.5 47.001zM543 828.001c0 18 6.5 33.333 19.5 46s28.5 19 46.5 19s33.333 -6.33301 46 -19s19 -28 19 -46c0 -18.667 -6.33301 -34.334 -19 -47.001s-28 -19 -46 -19
s-33.5 6.33301 -46.5 19s-19.5 28.334 -19.5 47.001z" />
    <glyph glyph-name="Yacute" unicode="&#xdd;" horiz-adv-x="615" 
d="M77 659l10 41h237l-10 -41l-64 -13l93 -261l204 254l-74 20l10 41h231l-10 -41l-76 -22l-259 -319l-63 -255l88 -22l-10 -41h-269l10 41l84 22l62 250l-120 326zM355 771l133.998 119c16.667 -6 32.334 -16.333 47.001 -31s26.334 -30.667 35.001 -48l-189 -71z" />
    <glyph glyph-name="Thorn" unicode="&#xde;" horiz-adv-x="578" 
d="M-20 0l10.001 41l92 22l143 574l-81 22l10 41h270l-10 -41l-93 -22l-22 -89h52c63.333 0 114.833 -12.833 154.5 -38.5s59.5 -65.5 59.5 -119.5c0 -76 -26.833 -134.667 -80.5 -176s-126.834 -62 -219.501 -62h-65l-22 -89l82 -22l-10 -41h-270zM215.001 212h56
c62 0 109.667 15 143 45s50 72 50 126c0 34.667 -11 61.167 -33 79.5s-53.333 27.5 -94 27.5h-53z" />
    <glyph glyph-name="germandbls" unicode="&#xdf;" horiz-adv-x="617" 
d="M9 -7l150.998 580.001c40.667 156 133.334 234 278.001 234c54 0 95.333 -12.5 124 -37.5s43 -56.167 43 -93.5c0 -38.667 -8.16699 -69.834 -24.5 -93.501s-36 -40.5 -59 -50.5s-46 -18.833 -69 -26.5s-42.667 -19.167 -59 -34.5s-24.5 -36 -24.5 -62
c0 -15.333 4.66699 -30.166 14 -44.499s18.833 -25.833 28.5 -34.5s25.167 -21 46.5 -37c35.333 -26.667 60.5 -50.834 75.5 -72.501s22.5 -48.167 22.5 -79.5c0 -45.333 -17.167 -81.333 -51.5 -108s-81.166 -40 -140.499 -40c-55.333 0 -99 8.33301 -131 25
s-48 37.334 -48 62.001c0 18.667 5.5 34 16.5 46s27.833 24.667 50.5 38l33 -58l14.5 -22.5c6.33301 -9.66699 11.833 -16.667 16.5 -21s10.334 -9 17.001 -14s13.5 -8.5 20.5 -10.5s14.833 -3 23.5 -3c24 0 45.5 6.5 64.5 19.5s28.5 31.833 28.5 56.5
c0 21.333 -6.33301 40.666 -19 57.999s-28 32.333 -46 45l-55 40c-18 13.333 -33.333 30.833 -46 52.5s-19 46.167 -19 73.5c0 28 5.66699 51.667 17 71s25.333 33.666 42 42.999l110 58c17.333 9.33301 31.666 23.333 42.999 42s17 41.667 17 69
c0 29.333 -7.83301 53.333 -23.5 72s-38.5 28 -68.5 28c-13.333 0 -27.166 -2.83301 -41.499 -8.5s-29.833 -15.667 -46.5 -30s-32.834 -36.666 -48.501 -66.999s-29.167 -66.833 -40.5 -109.5l-142 -548z" />
    <glyph glyph-name="agrave" unicode="&#xe0;" horiz-adv-x="567" 
d="M24 137c0 102.667 30.834 190.001 92.501 262.001s136.167 108 223.5 108c62 0 116.333 -15.333 163 -46l-101 -392h100v-32c-49.333 -15.333 -86.833 -26.5 -112.5 -33.5s-42.834 -10.5 -51.501 -10.5c-23.333 0 -35 10 -35 30c0 10 2.33301 23.667 7 41l9 36
c-56 -71.333 -117.333 -107 -184 -107c-32 0 -58.5 11.667 -79.5 35s-31.5 59.666 -31.5 108.999zM122.001 159.001c0 -64.667 20.668 -96.998 62.001 -96.998c22.667 0 49.167 12.667 79.5 38s56.833 55.666 79.5 90.999l69 265c-14 4.66699 -30.667 7 -50 7
c-46.667 0 -88.834 -15.833 -126.501 -47.5s-66 -70.334 -85 -116.001s-28.5 -92.5 -28.5 -140.5zM185.002 715.003c23.333 28 54.667 45.333 94 52l101 -176l-35 -27z" />
    <glyph glyph-name="aacute" unicode="&#xe1;" horiz-adv-x="567" 
d="M24 137c0 102.667 30.834 190.001 92.501 262.001s136.167 108 223.5 108c62 0 116.333 -15.333 163 -46l-101 -392h100v-32c-49.333 -15.333 -86.833 -26.5 -112.5 -33.5s-42.834 -10.5 -51.501 -10.5c-23.333 0 -35 10 -35 30c0 10 2.33301 23.667 7 41l9 36
c-56 -71.333 -117.333 -107 -184 -107c-32 0 -58.5 11.667 -79.5 35s-31.5 59.666 -31.5 108.999zM122.001 159.001c0 -64.667 20.668 -96.998 62.001 -96.998c22.667 0 49.167 12.667 79.5 38s56.833 55.666 79.5 90.999l69 265c-14 4.66699 -30.667 7 -50 7
c-46.667 0 -88.834 -15.833 -126.501 -47.5s-66 -70.334 -85 -116.001s-28.5 -92.5 -28.5 -140.5zM331.002 591.003l101 175.999c40.667 -7.33301 72 -24.666 94 -51.999l-159 -151z" />
    <glyph glyph-name="acircumflex" unicode="&#xe2;" horiz-adv-x="567" 
d="M24 137c0 102.667 30.834 190.001 92.501 262.001s136.167 108 223.5 108c62 0 116.333 -15.333 163 -46l-101 -392h100v-32c-49.333 -15.333 -86.833 -26.5 -112.5 -33.5s-42.834 -10.5 -51.501 -10.5c-23.333 0 -35 10 -35 30c0 10 2.33301 23.667 7 41l9 36
c-56 -71.333 -117.333 -107 -184 -107c-32 0 -58.5 11.667 -79.5 35s-31.5 59.666 -31.5 108.999zM122.001 159.001c0 -64.667 20.668 -96.998 62.001 -96.998c22.667 0 49.167 12.667 79.5 38s56.833 55.666 79.5 90.999l69 265c-14 4.66699 -30.667 7 -50 7
c-46.667 0 -88.834 -15.833 -126.501 -47.5s-66 -70.334 -85 -116.001s-28.5 -92.5 -28.5 -140.5zM225.002 610.003l155 161h75l71 -166l-39 -24l-82 123l-135 -118z" />
    <glyph glyph-name="atilde" unicode="&#xe3;" horiz-adv-x="567" 
d="M24 137c0 102.667 30.834 190.001 92.501 262.001s136.167 108 223.5 108c62 0 116.333 -15.333 163 -46l-101 -392h100v-32c-49.333 -15.333 -86.833 -26.5 -112.5 -33.5s-42.834 -10.5 -51.501 -10.5c-23.333 0 -35 10 -35 30c0 10 2.33301 23.667 7 41l9 36
c-56 -71.333 -117.333 -107 -184 -107c-32 0 -58.5 11.667 -79.5 35s-31.5 59.666 -31.5 108.999zM122.001 159.001c0 -64.667 20.668 -96.998 62.001 -96.998c22.667 0 49.167 12.667 79.5 38s56.833 55.666 79.5 90.999l69 265c-14 4.66699 -30.667 7 -50 7
c-46.667 0 -88.834 -15.833 -126.501 -47.5s-66 -70.334 -85 -116.001s-28.5 -92.5 -28.5 -140.5zM200.002 677.003c13.333 16.667 31.834 33.5 55.501 50.5s46.834 25.5 69.501 25.5c24.667 0 48.334 -10.5 71.001 -31.5s43 -31.5 61 -31.5c25.333 0 54.333 13.333 87 40
l16 -29c-8.66699 -11.333 -26.334 -26.833 -53.001 -46.5s-52.334 -29.5 -77.001 -29.5c-26 0 -50.333 10.5 -73 31.5s-42.334 31.5 -59.001 31.5c-13.333 0 -24.833 -2.5 -34.5 -7.5s-25.5 -15.5 -47.5 -31.5z" />
    <glyph glyph-name="adieresis" unicode="&#xe4;" horiz-adv-x="567" 
d="M24 137c0 102.667 30.834 190.001 92.501 262.001s136.167 108 223.5 108c62 0 116.333 -15.333 163 -46l-101 -392h100v-32c-49.333 -15.333 -86.833 -26.5 -112.5 -33.5s-42.834 -10.5 -51.501 -10.5c-23.333 0 -35 10 -35 30c0 10 2.33301 23.667 7 41l9 36
c-56 -71.333 -117.333 -107 -184 -107c-32 0 -58.5 11.667 -79.5 35s-31.5 59.666 -31.5 108.999zM122.001 159.001c0 -64.667 20.668 -96.998 62.001 -96.998c22.667 0 49.167 12.667 79.5 38s56.833 55.666 79.5 90.999l69 265c-14 4.66699 -30.667 7 -50 7
c-46.667 0 -88.834 -15.833 -126.501 -47.5s-66 -70.334 -85 -116.001s-28.5 -92.5 -28.5 -140.5zM219.002 693.003c0 18 6.5 33.333 19.5 46s28.5 19 46.5 19s33.333 -6.33301 46 -19s19 -28 19 -46c0 -18.667 -6.33301 -34.334 -19 -47.001s-28 -19 -46 -19
s-33.5 6.33301 -46.5 19s-19.5 28.334 -19.5 47.001zM419.002 693.003c0 18 6.5 33.333 19.5 46s28.5 19 46.5 19s33.333 -6.33301 46 -19s19 -28 19 -46c0 -18.667 -6.33301 -34.334 -19 -47.001s-28 -19 -46 -19s-33.5 6.33301 -46.5 19s-19.5 28.334 -19.5 47.001z" />
    <glyph glyph-name="aring" unicode="&#xe5;" horiz-adv-x="567" 
d="M24 137c0 102.667 30.834 190.001 92.501 262.001s136.167 108 223.5 108c62 0 116.333 -15.333 163 -46l-101 -392h100v-32c-49.333 -15.333 -86.833 -26.5 -112.5 -33.5s-42.834 -10.5 -51.501 -10.5c-23.333 0 -35 10 -35 30c0 10 2.33301 23.667 7 41l9 36
c-56 -71.333 -117.333 -107 -184 -107c-32 0 -58.5 11.667 -79.5 35s-31.5 59.666 -31.5 108.999zM122.001 159.001c0 -64.667 20.668 -96.998 62.001 -96.998c22.667 0 49.167 12.667 79.5 38s56.833 55.666 79.5 90.999l69 265c-14 4.66699 -30.667 7 -50 7
c-46.667 0 -88.834 -15.833 -126.501 -47.5s-66 -70.334 -85 -116.001s-28.5 -92.5 -28.5 -140.5zM354.002 591.003c-29.333 0 -54.668 10.5 -76.001 31.5s-32 46.833 -32 77.5c0 31.333 10.833 57.333 32.5 78s46.834 31 75.501 31s54 -10.333 76 -31s33 -46.667 33 -78
c0 -30.667 -10.667 -56.5 -32 -77.5s-47 -31.5 -77 -31.5zM354 645.003c15.333 0 28.5 5.5 39.5 16.5s16.5 23.833 16.5 38.5s-5.66699 27.5 -17 38.5s-24.333 16.5 -39 16.5s-27.5 -5.5 -38.5 -16.5s-16.5 -23.833 -16.5 -38.5s5.5 -27.5 16.5 -38.5
s23.833 -16.5 38.5 -16.5z" />
    <glyph glyph-name="ae" unicode="&#xe6;" horiz-adv-x="749" 
d="M8 99c0 58 28.3359 101.667 85.0029 131c56 28.667 130.667 43.334 224 44.001c4 12.667 8.66699 25.334 14 38.001c8 28 12 52.667 12 74c0 26 -7.33301 46.5 -22 61.5s-35.667 22.5 -63 22.5c-33.333 0 -57 -10.833 -71 -32.5s-21.333 -55.834 -22 -102.501
c-24.667 0 -46 5.66699 -64 17s-27 29 -27 53c0.666992 31.333 17.5 56.166 50.5 74.499s71.833 27.5 116.5 27.5c84.667 0 142.667 -25.667 174 -77c13.333 16 37.666 32.833 72.999 50.5s75 26.5 119 26.5c37.333 0 67.5 -8.5 90.5 -25.5s34.5 -41.833 34.5 -74.5
c0 -38.667 -15.833 -72 -47.5 -100s-71.5 -48.5 -119.5 -61.5s-101.667 -20.5 -161 -22.5c-2 -12 -3 -24 -3 -36c0 -40.667 9.33301 -75 28 -103s46.667 -42 84 -42c34.667 0 75.667 9 123 27l9 -31c-60 -30 -121.333 -45 -184 -45c-69.333 0 -116.333 23.667 -141 71
c-24.667 -19.333 -52.334 -36 -83.001 -50s-66.334 -21 -107.001 -21c-38 0 -67.833 10.167 -89.5 30.5s-32.5 45.5 -32.5 75.5zM412.003 269c74.667 9.33301 131.167 27.001 169.5 53.001s57.5 56.333 57.5 91c0 17.333 -4.66699 31.166 -14 41.499
s-21.666 15.5 -36.999 15.5c-41.333 0 -78.333 -18.5 -111 -55.5s-54.334 -85.5 -65.001 -145.5zM300.003 162.001c0 22.667 1.99902 45 5.99902 67c-55.333 -0.666992 -101.666 -11 -138.999 -31s-56 -47.667 -56 -83c0 -17.333 5.5 -32 16.5 -44s28.167 -18 51.5 -18
c44.667 0 87 16.667 127 50c-4 17.333 -6 37 -6 59z" />
    <glyph glyph-name="ccedilla" unicode="&#xe7;" horiz-adv-x="462" 
d="M85 -229l12.001 38.999c8.66699 -2.66699 21 -4 37 -4c24.667 0 46.834 5.33301 66.501 16s29.5 28.334 29.5 53.001c0 32.667 -19.667 49 -59 49l35 69h-13c-52 0 -92.667 15.333 -122 46s-44 74.334 -44 131.001c0 40 6.5 79.667 19.5 119s31.333 75.333 55 108
s54.167 59.167 91.5 79.5s78.333 30.5 123 30.5c41.333 0 74.833 -7.83301 100.5 -23.5s38.5 -34.834 38.5 -57.501c0 -20 -8.16699 -36.833 -24.5 -50.5s-37.833 -20.834 -64.5 -21.501c-2.66699 10 -5.83398 23 -9.50098 39s-6.33398 27 -8.00098 33
s-4.33398 13 -8.00098 21s-7.66699 13.333 -12 16s-10.166 4 -17.499 4c-46.667 0 -88.5 -27.667 -125.5 -83s-55.5 -124 -55.5 -206c0 -41.333 9.33301 -74.333 28 -99s48.667 -37 90 -37c32.667 0 71.667 8.66699 117 26l10 -31c-40 -20 -80.667 -33 -122 -39l-18 -39
c49.333 -2.66699 74 -25.667 74 -69c0 -37.333 -15.667 -68.166 -47 -92.499s-67.333 -36.5 -108 -36.5c-24 0 -47 3.33301 -69 10z" />
    <glyph glyph-name="egrave" unicode="&#xe8;" horiz-adv-x="473" 
d="M24 162c0 32 4.33203 64.167 12.999 96.5s21.834 63.333 39.501 93s38.5 56 62.5 79s52.667 41.5 86 55.5s69 21 107 21c37.333 0 67.5 -8.5 90.5 -25.5s34.5 -41.833 34.5 -74.5c0 -24.667 -7.16699 -47.167 -21.5 -67.5s-31.833 -37.5 -52.5 -51.5s-47 -27 -79 -39
s-61.167 -21.5 -87.5 -28.5s-56.833 -14.167 -91.5 -21.5c-0.666992 -6 -1 -15 -1 -27c0 -86.667 37.667 -130 113 -130c34.667 0 75.667 9 123 27l10 -31c-60 -30 -121.333 -45 -184 -45c-108 0 -162 56.333 -162 169zM129.999 238c152.667 55.333 229 115 229 179
c0 35.333 -15.667 53 -47 53c-40 0 -77.5 -23.167 -112.5 -69.5s-58.167 -100.5 -69.5 -162.5zM160.999 715c23.333 28 54.667 45.333 94 52l101 -176l-35 -27z" />
    <glyph glyph-name="eacute" unicode="&#xe9;" horiz-adv-x="473" 
d="M24 162c0 32 4.33203 64.167 12.999 96.5s21.834 63.333 39.501 93s38.5 56 62.5 79s52.667 41.5 86 55.5s69 21 107 21c37.333 0 67.5 -8.5 90.5 -25.5s34.5 -41.833 34.5 -74.5c0 -24.667 -7.16699 -47.167 -21.5 -67.5s-31.833 -37.5 -52.5 -51.5s-47 -27 -79 -39
s-61.167 -21.5 -87.5 -28.5s-56.833 -14.167 -91.5 -21.5c-0.666992 -6 -1 -15 -1 -27c0 -86.667 37.667 -130 113 -130c34.667 0 75.667 9 123 27l10 -31c-60 -30 -121.333 -45 -184 -45c-108 0 -162 56.333 -162 169zM129.999 238c152.667 55.333 229 115 229 179
c0 35.333 -15.667 53 -47 53c-40 0 -77.5 -23.167 -112.5 -69.5s-58.167 -100.5 -69.5 -162.5zM287.999 591l101 175.999c40.667 -7.33301 72 -24.666 94 -51.999l-159 -151z" />
    <glyph glyph-name="ecircumflex" unicode="&#xea;" horiz-adv-x="473" 
d="M24 162c0 32 4.33203 64.167 12.999 96.5s21.834 63.333 39.501 93s38.5 56 62.5 79s52.667 41.5 86 55.5s69 21 107 21c37.333 0 67.5 -8.5 90.5 -25.5s34.5 -41.833 34.5 -74.5c0 -24.667 -7.16699 -47.167 -21.5 -67.5s-31.833 -37.5 -52.5 -51.5s-47 -27 -79 -39
s-61.167 -21.5 -87.5 -28.5s-56.833 -14.167 -91.5 -21.5c-0.666992 -6 -1 -15 -1 -27c0 -86.667 37.667 -130 113 -130c34.667 0 75.667 9 123 27l10 -31c-60 -30 -121.333 -45 -184 -45c-108 0 -162 56.333 -162 169zM129.999 238c152.667 55.333 229 115 229 179
c0 35.333 -15.667 53 -47 53c-40 0 -77.5 -23.167 -112.5 -69.5s-58.167 -100.5 -69.5 -162.5zM171.999 601l155 161h75l71 -166l-39 -24l-82 123l-135 -118z" />
    <glyph glyph-name="edieresis" unicode="&#xeb;" horiz-adv-x="473" 
d="M24 162c0 32 4.33203 64.167 12.999 96.5s21.834 63.333 39.501 93s38.5 56 62.5 79s52.667 41.5 86 55.5s69 21 107 21c37.333 0 67.5 -8.5 90.5 -25.5s34.5 -41.833 34.5 -74.5c0 -24.667 -7.16699 -47.167 -21.5 -67.5s-31.833 -37.5 -52.5 -51.5s-47 -27 -79 -39
s-61.167 -21.5 -87.5 -28.5s-56.833 -14.167 -91.5 -21.5c-0.666992 -6 -1 -15 -1 -27c0 -86.667 37.667 -130 113 -130c34.667 0 75.667 9 123 27l10 -31c-60 -30 -121.333 -45 -184 -45c-108 0 -162 56.333 -162 169zM129.999 238c152.667 55.333 229 115 229 179
c0 35.333 -15.667 53 -47 53c-40 0 -77.5 -23.167 -112.5 -69.5s-58.167 -100.5 -69.5 -162.5zM161.999 693c0 18 6.5 33.333 19.5 46s28.5 19 46.5 19s33.333 -6.33301 46 -19s19 -28 19 -46c0 -18.667 -6.33301 -34.334 -19 -47.001s-28 -19 -46 -19
s-33.5 6.33301 -46.5 19s-19.5 28.334 -19.5 47.001zM361.999 693c0 18 6.5 33.333 19.5 46s28.5 19 46.5 19s33.333 -6.33301 46 -19s19 -28 19 -46c0 -18.667 -6.33301 -34.334 -19 -47.001s-28 -19 -46 -19s-33.5 6.33301 -46.5 19s-19.5 28.334 -19.5 47.001z" />
    <glyph glyph-name="igrave" unicode="&#xec;" horiz-adv-x="313" 
d="M45 22c0 7.33301 2.33301 21.001 7 41.001l94 369h-101v31c90.667 29.333 145.667 44 165 44c24 0 36 -9.66699 36 -29c0 -8.66699 -2.66699 -22.334 -8 -41.001l-92 -369h100v-31c-90 -29.333 -145 -44 -165 -44c-24 0 -36 9.66699 -36 29zM41 715.001
c23.333 28 54.667 45.333 94 52l101 -176l-35 -27z" />
    <glyph glyph-name="iacute" unicode="&#xed;" horiz-adv-x="313" 
d="M45 22c0 7.33301 2.33301 21.001 7 41.001l94 369h-101v31c90.667 29.333 145.667 44 165 44c24 0 36 -9.66699 36 -29c0 -8.66699 -2.66699 -22.334 -8 -41.001l-92 -369h100v-31c-90 -29.333 -145 -44 -165 -44c-24 0 -36 9.66699 -36 29zM143 591.001l101 175.999
c40.667 -7.33301 72 -24.666 94 -51.999l-159 -151z" />
    <glyph glyph-name="icircumflex" unicode="&#xee;" horiz-adv-x="313" 
d="M45 22c0 7.33301 2.33301 21.001 7 41.001l94 369h-101v31c90.667 29.333 145.667 44 165 44c24 0 36 -9.66699 36 -29c0 -8.66699 -2.66699 -22.334 -8 -41.001l-92 -369h100v-31c-90 -29.333 -145 -44 -165 -44c-24 0 -36 9.66699 -36 29zM23 610.001l155 161h75
l71 -166l-39 -24l-82 123l-135 -118z" />
    <glyph glyph-name="idieresis" unicode="&#xef;" horiz-adv-x="313" 
d="M45 22c0 7.33301 2.33301 21.001 7 41.001l94 369h-101v31c90.667 29.333 145.667 44 165 44c24 0 36 -9.66699 36 -29c0 -8.66699 -2.66699 -22.334 -8 -41.001l-92 -369h100v-31c-90 -29.333 -145 -44 -165 -44c-24 0 -36 9.66699 -36 29zM51 693.001
c0 18 6.5 33.333 19.5 46s28.5 19 46.5 19s33.333 -6.33301 46 -19s19 -28 19 -46c0 -18.667 -6.33301 -34.334 -19 -47.001s-28 -19 -46 -19s-33.5 6.33301 -46.5 19s-19.5 28.334 -19.5 47.001zM251 693.001c0 18 6.5 33.333 19.5 46s28.5 19 46.5 19
s33.333 -6.33301 46 -19s19 -28 19 -46c0 -18.667 -6.33301 -34.334 -19 -47.001s-28 -19 -46 -19s-33.5 6.33301 -46.5 19s-19.5 28.334 -19.5 47.001z" />
    <glyph glyph-name="eth" unicode="&#xf0;" horiz-adv-x="570" 
d="M26 186c0 82.667 32.167 151.834 96.5 207.501s142.833 83.5 235.5 83.5c17.333 0 35 -1 53 -3c-2.66699 54 -14 99 -34 135l-139 -85v68l104 63c-38 36 -90.333 54 -157 54l13 49c88 0 158 -20.667 210 -62l115 70v-68l-73 -45c41.333 -54 62 -126 62 -216
c0 -48.667 -4.83301 -96.834 -14.5 -144.501s-25.167 -95 -46.5 -142s-53 -85 -95 -114s-91.333 -43.5 -148 -43.5c-56 0 -100.333 17.5 -133 52.5s-49 81.833 -49 140.5zM127 163c0 -42.667 8.16699 -75 24.5 -97s38.5 -33 66.5 -33c56.667 0 102 38.833 136 116.5
s52.667 170.5 56 278.5c-16 1.33301 -27 2 -33 2c-42 0 -79.833 -8.66699 -113.5 -26s-60 -39.5 -79 -66.5s-33.333 -55.5 -43 -85.5s-14.5 -59.667 -14.5 -89z" />
    <glyph glyph-name="ntilde" unicode="&#xf1;" horiz-adv-x="598" 
d="M37 -7l108.998 438.001h-100v32c50 15.333 87.667 26.5 113 33.5s42.666 10.5 51.999 10.5c23.333 0 35 -10 35 -30c0 -5.33301 -0.666992 -11.333 -2 -18s-3 -14.334 -5 -23.001l-16 -62c66.667 88.667 133.667 133 201 133c62 0 93 -32.667 93 -98
c0 -33.333 -8.33301 -77.666 -25 -132.999l-60 -207h100v-32c-50 -15.333 -87.667 -26.5 -113 -33.5s-42.666 -10.5 -51.999 -10.5c-23.333 0 -35 10 -35 30c0 11.333 2.33301 25 7 41c50.667 175.333 77.5 270.166 80.5 284.499s4.5 26.833 4.5 37.5
c0 31.333 -12.333 47 -37 47c-12 0 -26.167 -4.16699 -42.5 -12.5s-33.166 -19.333 -50.499 -33s-34.166 -29.5 -50.499 -47.5s-30.5 -36.333 -42.5 -55l-72 -285zM183.998 677.001c13.333 16.667 31.834 33.5 55.501 50.5s46.834 25.5 69.501 25.5
c24.667 0 48.334 -10.5 71.001 -31.5s43 -31.5 61 -31.5c25.333 0 54.333 13.333 87 40l16 -29c-8.66699 -11.333 -26.334 -26.833 -53.001 -46.5s-52.334 -29.5 -77.001 -29.5c-26 0 -50.333 10.5 -73 31.5s-42.334 31.5 -59.001 31.5c-13.333 0 -24.833 -2.5 -34.5 -7.5
s-25.5 -15.5 -47.5 -31.5z" />
    <glyph glyph-name="ograve" unicode="&#xf2;" horiz-adv-x="538" 
d="M26 176c0 54.667 11.8359 106.834 35.5029 156.501s58.667 91.167 105 124.5s98.833 50 157.5 50c54.667 0 96 -16.333 124 -49s42 -77.667 42 -135c0 -54 -11.833 -106 -35.5 -156s-58.834 -91.5 -105.501 -124.5s-99.334 -49.5 -158.001 -49.5
c-54.667 0 -95.834 16.167 -123.501 48.5s-41.5 77.166 -41.5 134.499zM127.003 158c0 -83.333 25.333 -125.001 76 -125.001c30.667 0 58.334 10.833 83.001 32.5s44.167 48.834 58.5 81.501s25.166 65.834 32.499 99.501s11 65.167 11 94.5c0 84 -25.333 126 -76 126
c-30 0 -57.5 -10.833 -82.5 -32.5s-44.5 -48.834 -58.5 -81.501s-24.833 -66 -32.5 -100s-11.5 -65.667 -11.5 -95zM170.003 714.999c23.333 28 54.667 45.333 94 52l101 -176l-35 -27z" />
    <glyph glyph-name="oacute" unicode="&#xf3;" horiz-adv-x="538" 
d="M26 176c0 54.667 11.8359 106.834 35.5029 156.501s58.667 91.167 105 124.5s98.833 50 157.5 50c54.667 0 96 -16.333 124 -49s42 -77.667 42 -135c0 -54 -11.833 -106 -35.5 -156s-58.834 -91.5 -105.501 -124.5s-99.334 -49.5 -158.001 -49.5
c-54.667 0 -95.834 16.167 -123.501 48.5s-41.5 77.166 -41.5 134.499zM127.003 158c0 -83.333 25.333 -125.001 76 -125.001c30.667 0 58.334 10.833 83.001 32.5s44.167 48.834 58.5 81.501s25.166 65.834 32.499 99.501s11 65.167 11 94.5c0 84 -25.333 126 -76 126
c-30 0 -57.5 -10.833 -82.5 -32.5s-44.5 -48.834 -58.5 -81.501s-24.833 -66 -32.5 -100s-11.5 -65.667 -11.5 -95zM316.003 590.999l101 175.999c40.667 -7.33301 72 -24.666 94 -51.999l-159 -151z" />
    <glyph glyph-name="ocircumflex" unicode="&#xf4;" horiz-adv-x="538" 
d="M26 176c0 54.667 11.8359 106.834 35.5029 156.501s58.667 91.167 105 124.5s98.833 50 157.5 50c54.667 0 96 -16.333 124 -49s42 -77.667 42 -135c0 -54 -11.833 -106 -35.5 -156s-58.834 -91.5 -105.501 -124.5s-99.334 -49.5 -158.001 -49.5
c-54.667 0 -95.834 16.167 -123.501 48.5s-41.5 77.166 -41.5 134.499zM127.003 158c0 -83.333 25.333 -125.001 76 -125.001c30.667 0 58.334 10.833 83.001 32.5s44.167 48.834 58.5 81.501s25.166 65.834 32.499 99.501s11 65.167 11 94.5c0 84 -25.333 126 -76 126
c-30 0 -57.5 -10.833 -82.5 -32.5s-44.5 -48.834 -58.5 -81.501s-24.833 -66 -32.5 -100s-11.5 -65.667 -11.5 -95zM200.003 600.999l155 161h75l71 -166l-39 -24l-82 123l-135 -118z" />
    <glyph glyph-name="otilde" unicode="&#xf5;" horiz-adv-x="538" 
d="M26 176c0 54.667 11.8359 106.834 35.5029 156.501s58.667 91.167 105 124.5s98.833 50 157.5 50c54.667 0 96 -16.333 124 -49s42 -77.667 42 -135c0 -54 -11.833 -106 -35.5 -156s-58.834 -91.5 -105.501 -124.5s-99.334 -49.5 -158.001 -49.5
c-54.667 0 -95.834 16.167 -123.501 48.5s-41.5 77.166 -41.5 134.499zM127.003 158c0 -83.333 25.333 -125.001 76 -125.001c30.667 0 58.334 10.833 83.001 32.5s44.167 48.834 58.5 81.501s25.166 65.834 32.499 99.501s11 65.167 11 94.5c0 84 -25.333 126 -76 126
c-30 0 -57.5 -10.833 -82.5 -32.5s-44.5 -48.834 -58.5 -81.501s-24.833 -66 -32.5 -100s-11.5 -65.667 -11.5 -95zM151.003 657.999c13.333 16.667 31.834 33.5 55.501 50.5s46.834 25.5 69.501 25.5c24.667 0 48.334 -10.5 71.001 -31.5s43 -31.5 61 -31.5
c25.333 0 54.333 13.333 87 40l16 -29c-8.66699 -11.333 -26.334 -26.833 -53.001 -46.5s-52.334 -29.5 -77.001 -29.5c-26 0 -50.333 10.5 -73 31.5s-42.334 31.5 -59.001 31.5c-13.333 0 -24.833 -2.5 -34.5 -7.5s-25.5 -15.5 -47.5 -31.5z" />
    <glyph glyph-name="odieresis" unicode="&#xf6;" horiz-adv-x="538" 
d="M26 176c0 54.667 11.8359 106.834 35.5029 156.501s58.667 91.167 105 124.5s98.833 50 157.5 50c54.667 0 96 -16.333 124 -49s42 -77.667 42 -135c0 -54 -11.833 -106 -35.5 -156s-58.834 -91.5 -105.501 -124.5s-99.334 -49.5 -158.001 -49.5
c-54.667 0 -95.834 16.167 -123.501 48.5s-41.5 77.166 -41.5 134.499zM127.003 158c0 -83.333 25.333 -125.001 76 -125.001c30.667 0 58.334 10.833 83.001 32.5s44.167 48.834 58.5 81.501s25.166 65.834 32.499 99.501s11 65.167 11 94.5c0 84 -25.333 126 -76 126
c-30 0 -57.5 -10.833 -82.5 -32.5s-44.5 -48.834 -58.5 -81.501s-24.833 -66 -32.5 -100s-11.5 -65.667 -11.5 -95zM170.003 692.999c0 18 6.5 33.333 19.5 46s28.5 19 46.5 19s33.333 -6.33301 46 -19s19 -28 19 -46c0 -18.667 -6.33301 -34.334 -19 -47.001
s-28 -19 -46 -19s-33.5 6.33301 -46.5 19s-19.5 28.334 -19.5 47.001zM370.003 692.999c0 18 6.5 33.333 19.5 46s28.5 19 46.5 19s33.333 -6.33301 46 -19s19 -28 19 -46c0 -18.667 -6.33301 -34.334 -19 -47.001s-28 -19 -46 -19s-33.5 6.33301 -46.5 19
s-19.5 28.334 -19.5 47.001z" />
    <glyph glyph-name="divide" unicode="&#xf7;" horiz-adv-x="558" 
d="M70 323v68h449v-68h-449zM228 187c0 18.667 6.66699 34.5 20 47.5s29 19.5 47 19.5c18.667 0 34.5 -6.5 47.5 -19.5s19.5 -28.833 19.5 -47.5c0 -18 -6.5 -33.833 -19.5 -47.5s-28.833 -20.5 -47.5 -20.5c-18 0 -33.667 6.83301 -47 20.5s-20 29.5 -20 47.5zM228 527
c0 18.667 6.66699 34.667 20 48s29 20 47 20c18.667 0 34.5 -6.66699 47.5 -20s19.5 -29.333 19.5 -48c0 -18 -6.5 -33.833 -19.5 -47.5s-28.833 -20.5 -47.5 -20.5c-18 0 -33.667 6.83301 -47 20.5s-20 29.5 -20 47.5z" />
    <glyph glyph-name="oslash" unicode="&#xf8;" horiz-adv-x="538" 
d="M49 -71l47.0029 86.999c-10.667 6.66699 -20.334 15 -29.001 25c-27.333 32.667 -41 77.667 -41 135c0 54.667 11.833 106.834 35.5 156.501s58.667 91.167 105 124.5s98.833 50 157.5 50c14 0 27.333 -1 40 -3l36 65h56l-45 -82c14 -7.33301 26.333 -17 37 -29
c28 -32.667 42 -77.667 42 -135c0 -54 -11.833 -106 -35.5 -156s-58.834 -91.5 -105.501 -124.5s-99.334 -49.5 -158.001 -49.5c-17.333 0 -33.333 1.66699 -48 5l-37 -69h-57zM203.003 32.999c30.667 0 58.334 10.8311 83.001 32.498s44.167 48.834 58.5 81.501
s25.166 65.834 32.499 99.501s11 65.167 11 94.5c0 34 -4.33301 61 -13 81l-207 -380c10 -6 21.667 -9 35 -9zM127.003 157.997c0 -28.667 2.66797 -52.332 8.00098 -70.999l206 374c-8.66699 4 -18.334 6 -29.001 6c-30 0 -57.5 -10.833 -82.5 -32.5
s-44.5 -48.834 -58.5 -81.501s-24.833 -66 -32.5 -100s-11.5 -65.667 -11.5 -95z" />
    <glyph glyph-name="ugrave" unicode="&#xf9;" horiz-adv-x="597" 
d="M44 431l0.00195312 31.998c50 15.333 87.667 26.5 113 33.5s42.666 10.5 51.999 10.5c23.333 0 35 -10 35 -30c0 -5.33301 -2.33301 -16.833 -7 -34.5l-17 -63l-22 -78.5l-22 -79.5c-6.66699 -25 -12.334 -47.333 -17.001 -67s-7 -33.167 -7 -40.5
c0 -31.333 12.333 -47 37 -47c12.667 0 27.167 4.16699 43.5 12.5s33 19.5 50 33.5s33.667 29.833 50 47.5s30.5 35.834 42.5 54.501l72 285l92 7l-109 -438h100v-32c-50 -15.333 -87.667 -26.5 -113 -33.5s-42.666 -10.5 -51.999 -10.5c-23.333 0 -35 10 -35 30
c-0.666992 8.66699 1.66602 22.334 6.99902 41.001l16 62c-66.667 -88.667 -133.667 -133 -201 -133c-62 0 -93 32.667 -93 98c0 32.667 8.33301 77 25 133l60 207h-100zM204.002 714.998c23.333 28 54.667 45.333 94 52l101 -176l-35 -27z" />
    <glyph glyph-name="uacute" unicode="&#xfa;" horiz-adv-x="597" 
d="M44 431l0.00195312 31.998c50 15.333 87.667 26.5 113 33.5s42.666 10.5 51.999 10.5c23.333 0 35 -10 35 -30c0 -5.33301 -2.33301 -16.833 -7 -34.5l-17 -63l-22 -78.5l-22 -79.5c-6.66699 -25 -12.334 -47.333 -17.001 -67s-7 -33.167 -7 -40.5
c0 -31.333 12.333 -47 37 -47c12.667 0 27.167 4.16699 43.5 12.5s33 19.5 50 33.5s33.667 29.833 50 47.5s30.5 35.834 42.5 54.501l72 285l92 7l-109 -438h100v-32c-50 -15.333 -87.667 -26.5 -113 -33.5s-42.666 -10.5 -51.999 -10.5c-23.333 0 -35 10 -35 30
c-0.666992 8.66699 1.66602 22.334 6.99902 41.001l16 62c-66.667 -88.667 -133.667 -133 -201 -133c-62 0 -93 32.667 -93 98c0 32.667 8.33301 77 25 133l60 207h-100zM307.002 590.998l101 175.999c40.667 -7.33301 72 -24.666 94 -51.999l-159 -151z" />
    <glyph glyph-name="ucircumflex" unicode="&#xfb;" horiz-adv-x="597" 
d="M44 431l0.00195312 31.998c50 15.333 87.667 26.5 113 33.5s42.666 10.5 51.999 10.5c23.333 0 35 -10 35 -30c0 -5.33301 -2.33301 -16.833 -7 -34.5l-17 -63l-22 -78.5l-22 -79.5c-6.66699 -25 -12.334 -47.333 -17.001 -67s-7 -33.167 -7 -40.5
c0 -31.333 12.333 -47 37 -47c12.667 0 27.167 4.16699 43.5 12.5s33 19.5 50 33.5s33.667 29.833 50 47.5s30.5 35.834 42.5 54.501l72 285l92 7l-109 -438h100v-32c-50 -15.333 -87.667 -26.5 -113 -33.5s-42.666 -10.5 -51.999 -10.5c-23.333 0 -35 10 -35 30
c-0.666992 8.66699 1.66602 22.334 6.99902 41.001l16 62c-66.667 -88.667 -133.667 -133 -201 -133c-62 0 -93 32.667 -93 98c0 32.667 8.33301 77 25 133l60 207h-100zM205.002 609.998l155 161h75l71 -166l-39 -24l-82 123l-135 -118z" />
    <glyph glyph-name="udieresis" unicode="&#xfc;" horiz-adv-x="597" 
d="M44 431l0.00195312 31.998c50 15.333 87.667 26.5 113 33.5s42.666 10.5 51.999 10.5c23.333 0 35 -10 35 -30c0 -5.33301 -2.33301 -16.833 -7 -34.5l-17 -63l-22 -78.5l-22 -79.5c-6.66699 -25 -12.334 -47.333 -17.001 -67s-7 -33.167 -7 -40.5
c0 -31.333 12.333 -47 37 -47c12.667 0 27.167 4.16699 43.5 12.5s33 19.5 50 33.5s33.667 29.833 50 47.5s30.5 35.834 42.5 54.501l72 285l92 7l-109 -438h100v-32c-50 -15.333 -87.667 -26.5 -113 -33.5s-42.666 -10.5 -51.999 -10.5c-23.333 0 -35 10 -35 30
c-0.666992 8.66699 1.66602 22.334 6.99902 41.001l16 62c-66.667 -88.667 -133.667 -133 -201 -133c-62 0 -93 32.667 -93 98c0 32.667 8.33301 77 25 133l60 207h-100zM190.002 692.998c0 18 6.5 33.333 19.5 46s28.5 19 46.5 19s33.333 -6.33301 46 -19s19 -28 19 -46
c0 -18.667 -6.33301 -34.334 -19 -47.001s-28 -19 -46 -19s-33.5 6.33301 -46.5 19s-19.5 28.334 -19.5 47.001zM390.002 692.998c0 18 6.5 33.333 19.5 46s28.5 19 46.5 19s33.333 -6.33301 46 -19s19 -28 19 -46c0 -18.667 -6.33301 -34.334 -19 -47.001s-28 -19 -46 -19
s-33.5 6.33301 -46.5 19s-19.5 28.334 -19.5 47.001z" />
    <glyph glyph-name="yacute" unicode="&#xfd;" horiz-adv-x="543" 
d="M0 -245c0 15.333 5.16602 31.334 15.499 48.001s22.5 31.667 36.5 45l66 64l80 81l-78 438h-100v32c76 29.333 123.333 44 142 44c22 0 34.667 -10 38 -30l73 -400l8 9c58 70 98 127 120 171s33 83 33 117c0 11.333 -3.16699 22 -9.5 32s-13.5 18.5 -21.5 25.5
s-21.667 17.833 -41 32.5c24.667 28.667 54.334 43 89.001 43c18.667 0 35 -5.66699 49 -17s21 -29 21 -53c0 -88.667 -69 -216.334 -207 -383.001l-140 -162c-13.333 -14 -25.5 -27.833 -36.5 -41.5s-18.167 -24.5 -21.5 -32.5s-5 -16.333 -5 -25c0 -18 8.33301 -36 25 -54
c-23.333 -26 -49.333 -39 -78 -39c-15.333 0 -28.833 4.5 -40.5 13.5s-17.5 22.833 -17.5 41.5zM268.999 591.001l101 175.999c40.667 -7.33301 72 -24.666 94 -51.999l-159 -151z" />
    <glyph glyph-name="thorn" unicode="&#xfe;" horiz-adv-x="546" 
d="M-64 -279l84.999 314.999l179 695h-100v32c49.333 15.333 86.833 26.5 112.5 33.5s42.834 10.5 51.501 10.5c23.333 0 35 -10 35 -30c0 -10 -2.33301 -23.667 -7 -41l-88 -338c58.667 72.667 120.667 109 186 109c32 0 58.5 -11.667 79.5 -35s31.5 -59.666 31.5 -108.999
c0 -102.667 -30.833 -190 -92.5 -262s-136.167 -108 -223.5 -108c-29.333 0 -57 3.33301 -83 10l-70 -267zM112.999 43.999c14 -4.66699 30.665 -7.00098 49.998 -7.00098c46.667 0 88.834 15.833 126.501 47.5s66 70.334 85 116.001s28.5 92.5 28.5 140.5
c0 64.667 -20.667 97 -62 97c-23.333 0 -50.166 -13 -80.499 -39s-56.833 -56.667 -79.5 -92z" />
    <glyph glyph-name="ydieresis" unicode="&#xff;" horiz-adv-x="543" 
d="M0 -245c0 15.333 5.16602 31.334 15.499 48.001s22.5 31.667 36.5 45l66 64l80 81l-78 438h-100v32c76 29.333 123.333 44 142 44c22 0 34.667 -10 38 -30l73 -400l8 9c58 70 98 127 120 171s33 83 33 117c0 11.333 -3.16699 22 -9.5 32s-13.5 18.5 -21.5 25.5
s-21.667 17.833 -41 32.5c24.667 28.667 54.334 43 89.001 43c18.667 0 35 -5.66699 49 -17s21 -29 21 -53c0 -88.667 -69 -216.334 -207 -383.001l-140 -162c-13.333 -14 -25.5 -27.833 -36.5 -41.5s-18.167 -24.5 -21.5 -32.5s-5 -16.333 -5 -25c0 -18 8.33301 -36 25 -54
c-23.333 -26 -49.333 -39 -78 -39c-15.333 0 -28.833 4.5 -40.5 13.5s-17.5 22.833 -17.5 41.5zM185.999 693.001c0 18 6.5 33.333 19.5 46s28.5 19 46.5 19s33.333 -6.33301 46 -19s19 -28 19 -46c0 -18.667 -6.33301 -34.334 -19 -47.001s-28 -19 -46 -19
s-33.5 6.33301 -46.5 19s-19.5 28.334 -19.5 47.001zM385.999 693.001c0 18 6.5 33.333 19.5 46s28.5 19 46.5 19s33.333 -6.33301 46 -19s19 -28 19 -46c0 -18.667 -6.33301 -34.334 -19 -47.001s-28 -19 -46 -19s-33.5 6.33301 -46.5 19s-19.5 28.334 -19.5 47.001z" />
    <glyph glyph-name="dotlessi" unicode="&#x131;" horiz-adv-x="313" 
d="M45 22c0 7.33301 2.33301 21.001 7 41.001l94 369h-101v31c90.667 29.333 145.667 44 165 44c24 0 36 -9.66699 36 -29c0 -8.66699 -2.66699 -22.334 -8 -41.001l-92 -369h100v-31c-90 -29.333 -145 -44 -165 -44c-24 0 -36 9.66699 -36 29z" />
    <glyph glyph-name="OE" unicode="&#x152;" horiz-adv-x="1014" 
d="M54 233c0 80.667 15.668 156.501 47.001 227.501s78.666 129.667 141.999 176s136 69.5 218 69.5c85.333 0 143 -37.667 173 -113l27 107h379l-51 -205h-38l-6 143h-202l-65 -257l203 20l-20 -84l-194 18l-68 -273h201l109 154h38l-81 -216h-379l27 109
c-59.333 -77.333 -136.333 -116 -231 -116c-78 0 -135.667 22.167 -173 66.5s-56 102.166 -56 173.499zM156.001 213.001c0 -110.667 46.667 -166.001 140 -166.001c46.667 0 89.5 15.5 128.5 46.5s70.167 69.833 93.5 116.5s41.333 94.334 54 143.001s19 93.334 19 134.001
c0 110 -46.667 165 -140 165c-46.667 0 -89.5 -15.5 -128.5 -46.5s-70.167 -69.667 -93.5 -116s-41.333 -93.833 -54 -142.5s-19 -93.334 -19 -134.001z" />
    <glyph glyph-name="oe" unicode="&#x153;" horiz-adv-x="822" 
d="M26 176c0 54.667 11.835 106.834 35.502 156.501s58.667 91.167 105 124.5s98.833 50 157.5 50c54.667 0 96 -16.333 124 -49c10 -12.667 18.333 -26.667 25 -42c34 32.667 67.667 56 101 70s69 21 107 21c37.333 0 67.5 -8.5 90.5 -25.5s34.5 -41.833 34.5 -74.5
c0 -24.667 -7.16699 -47.167 -21.5 -67.5s-31.833 -37.5 -52.5 -51.5s-47 -27 -79 -39s-61.167 -21.5 -87.5 -28.5s-56.833 -14.167 -91.5 -21.5c-0.666992 -6 -1 -15 -1 -27c0 -86.667 37.667 -130 113 -130c34.667 0 75.667 9 123 27l10 -31
c-60 -30 -121.333 -45 -184 -45c-75.333 0 -124.333 27 -147 81c-12 -11.333 -25 -22 -39 -32c-46.667 -32.667 -99.334 -49 -158.001 -49c-54.667 0 -95.834 16.167 -123.501 48.5s-41.5 77.166 -41.5 134.499zM127.002 158c0 -83.333 25.333 -125.001 76 -125.001
c30.667 0 58.334 10.833 83.001 32.5s44.167 48.834 58.5 81.501s25.166 65.834 32.499 99.501s11 65.167 11 94.5c0 84 -25.333 126 -76 126c-30 0 -57.5 -10.833 -82.5 -32.5s-44.5 -48.834 -58.5 -81.501s-24.833 -66 -32.5 -100s-11.5 -65.667 -11.5 -95z
M479.002 237.999c152.667 55.333 228.999 114.999 228.999 178.999c0 34.667 -15.667 52 -47 52c-40 0 -77.667 -23 -113 -69c-28 -37.333 -48.667 -80 -62 -128c-1.33301 -11.333 -3.66602 -22.666 -6.99902 -33.999z" />
    <glyph glyph-name="circumflex" unicode="&#x2c6;" horiz-adv-x="310" 
d="M-7 610l155 161h75l71 -166l-39 -24l-82 123l-135 -118z" />
    <glyph glyph-name="caron" unicode="&#x2c7;" horiz-adv-x="336" 
d="M21 776l60 24l61 -124l136 119l45 -24l-156 -161h-74z" />
    <glyph glyph-name="ring" unicode="&#x2da;" horiz-adv-x="258" 
d="M148 591c-29.333 0 -54.668 10.5 -76.001 31.5s-32 46.833 -32 77.5c0 31.333 10.833 57.333 32.5 78s46.834 31 75.501 31s54 -10.333 76 -31s33 -46.667 33 -78c0 -30.667 -10.667 -56.5 -32 -77.5s-47 -31.5 -77 -31.5zM147.998 645c15.333 0 28.5 5.5 39.5 16.5
s16.5 23.833 16.5 38.5s-5.66699 27.5 -17 38.5s-24.333 16.5 -39 16.5s-27.5 -5.5 -38.5 -16.5s-16.5 -23.833 -16.5 -38.5s5.5 -27.5 16.5 -38.5s23.833 -16.5 38.5 -16.5z" />
    <glyph glyph-name="tilde" unicode="&#x2dc;" horiz-adv-x="355" 
d="M14 677c13.333 16.667 31.834 33.5 55.501 50.5s46.834 25.5 69.501 25.5c24.667 0 48.334 -10.5 71.001 -31.5s43 -31.5 61 -31.5c25.333 0 54.333 13.333 87 40l16 -29c-8.66699 -11.333 -26.334 -26.833 -53.001 -46.5s-52.334 -29.5 -77.001 -29.5
c-26 0 -50.333 10.5 -73 31.5s-42.334 31.5 -59.001 31.5c-13.333 0 -24.833 -2.5 -34.5 -7.5s-25.5 -15.5 -47.5 -31.5z" />
    <glyph glyph-name="endash" unicode="&#x2013;" horiz-adv-x="656" 
d="M72 241v64h510v-64h-510z" />
    <glyph glyph-name="emdash" unicode="&#x2014;" horiz-adv-x="1156" 
d="M72 241v64h1010v-64h-1010z" />
    <glyph glyph-name="quoteleft" unicode="&#x2018;" horiz-adv-x="232" 
d="M306 711c-47.333 -40 -86.335 -86.668 -117.002 -140.001l48 -47c-5.33301 -21.333 -15.166 -38.666 -29.499 -51.999s-31.166 -20 -50.499 -20c-18 0 -32.667 5 -44 15s-17 24 -17 42c0 59.333 62 136.333 186 231z" />
    <glyph glyph-name="quoteright" unicode="&#x2019;" horiz-adv-x="236" 
d="M79 454c47.333 40 86.335 86.668 117.002 140.001l-48 47c5.33301 21.333 15.166 38.666 29.499 51.999s31.166 20 50.499 20c18 0 32.667 -5 44 -15s17 -24 17 -42c0 -59.333 -62 -136.333 -186 -231z" />
    <glyph glyph-name="quotesinglbase" unicode="&#x201a;" horiz-adv-x="231" 
d="M-82 -142c47.333 40 86.335 86.668 117.002 140.001l-48 47c5.33301 21.333 15.166 38.666 29.499 51.999s31.166 20 50.499 20c18 0 32.667 -5 44 -15s17 -24 17 -42c0 -59.333 -62 -136.333 -186 -231z" />
    <glyph glyph-name="quotedblleft" unicode="&#x201c;" horiz-adv-x="401" 
d="M307 713c-47.333 -40 -86.335 -86.668 -117.002 -140.001l48 -47c-5.33301 -21.333 -15.166 -38.666 -29.499 -51.999s-31.166 -20 -50.499 -20c-18 0 -32.667 5 -44 15s-17 24 -17 42c0 59.333 62 136.333 186 231zM475.998 712.999
c-47.333 -40 -86.335 -86.668 -117.002 -140.001l48 -47c-5.33301 -21.333 -15.166 -38.666 -29.499 -51.999s-31.166 -20 -50.499 -20c-18 0 -32.667 5 -44 15s-17 24 -17 42c0 59.333 62 136.333 186 231z" />
    <glyph glyph-name="quotedblright" unicode="&#x201d;" horiz-adv-x="405" 
d="M79 454c47.333 40 86.335 86.668 117.002 140.001l-48 47c5.33301 21.333 15.166 38.666 29.499 51.999s31.166 20 50.499 20c18 0 32.667 -5 44 -15s17 -24 17 -42c0 -59.333 -62 -136.333 -186 -231zM248.002 454.001c47.333 40 86.335 86.668 117.002 140.001l-48 47
c5.33301 21.333 15.166 38.666 29.499 51.999s31.166 20 50.499 20c18 0 32.667 -5 44 -15s17 -24 17 -42c0 -59.333 -62 -136.333 -186 -231z" />
    <glyph glyph-name="quotedblbase" unicode="&#x201e;" horiz-adv-x="411" 
d="M-82 -142c47.333 40 86.335 86.668 117.002 140.001l-48 47c5.33301 21.333 15.166 38.666 29.499 51.999s31.166 20 50.499 20c18 0 32.667 -5 44 -15s17 -24 17 -42c0 -59.333 -62 -136.333 -186 -231zM98.002 -141.999c47.333 40 86.335 86.668 117.002 140.001
l-48 47c5.33301 21.333 15.166 38.666 29.499 51.999s31.166 20 50.499 20c18 0 32.667 -5 44 -15s17 -24 17 -42c0 -59.333 -62 -136.333 -186 -231z" />
    <glyph glyph-name="bullet" unicode="&#x2022;" horiz-adv-x="453" 
d="M94 359c0 40.667 15 75.5 45 104.5s65.667 43.5 107 43.5c40.667 0 75.5 -14.5 104.5 -43.5s43.5 -63.833 43.5 -104.5c0 -42.667 -14.5 -78.667 -43.5 -108s-63.833 -44 -104.5 -44c-41.333 0 -77 14.667 -107 44s-45 65.333 -45 108z" />
    <glyph glyph-name="guilsinglleft" unicode="&#x2039;" horiz-adv-x="299" 
d="M40 254l8 32l188 174h47l-143 -190l48 -190h-47z" />
    <glyph glyph-name="guilsinglright" unicode="&#x203a;" horiz-adv-x="300" 
d="M5 80l143 190l-48 190h47l101 -174l-8 -32l-188 -174h-47z" />
    <glyph glyph-name="fraction" unicode="&#x2044;" horiz-adv-x="381" 
d="M-80 0l514 715h61l-513 -715h-62z" />
    <glyph glyph-name="foursuperior" unicode="&#x2074;" horiz-adv-x="351" 
d="M48 398l7 32l276 280h39l-66 -267h43l-11 -45h-44l-28 -112h-67l29 112h-178zM126 443h111l37 148z" />
    <glyph glyph-name="Euro" unicode="&#x20ac;" horiz-adv-x="679" 
d="M36 243l11 42.001l69 4l22 96h-67l11 42l72 4c33.333 90 83.166 158.667 149.499 206s146.5 71 240.5 71c60.667 0 114.334 -13.333 161.001 -40l-52 -184h-40v153c-31.333 6 -60 9 -86 9c-126 0 -216.333 -69.667 -271 -209l260 15l-26 -67h-252
c-9.33301 -31.333 -16.333 -61.333 -21 -90l247 15l-26 -67h-228v-21c0 -111.333 50.333 -167 151 -167c30 0 59.667 3 89 9l115 162h38l-71 -184c-62.667 -32.667 -124.667 -49 -186 -49c-76.667 0 -135.167 18.5 -175.5 55.5s-60.5 91.5 -60.5 163.5
c0 13.333 0.333008 23.666 1 30.999h-75z" />
    <glyph glyph-name="minus" unicode="&#x2212;" horiz-adv-x="615" 
d="M96 323v68h450v-68h-450z" />
    <glyph glyph-name=".null" horiz-adv-x="0" 
 />
    <glyph glyph-name="nonmarkingreturn" horiz-adv-x="0" 
 />
    <glyph glyph-name="circumflex.case" horiz-adv-x="354" 
d="M10 781l155 122h84l96 -122l-45 -24l-106 75l-138 -75z" />
    <glyph glyph-name="acute.case" horiz-adv-x="213" 
d="M9 771l133.998 119c16.667 -6 32.334 -16.333 47.001 -31s26.334 -30.667 35.001 -48l-189 -71z" />
    <glyph glyph-name="grave.case" horiz-adv-x="222" 
d="M-7 811c8.66699 17.333 20.332 33.333 34.999 48s30.334 25 47.001 31l134 -119l-27 -31z" />
    <glyph glyph-name="dieresis.case" horiz-adv-x="355" 
d="M10 828c0 18 6.5 33.333 19.5 46s28.5 19 46.5 19s33.333 -6.33301 46 -19s19 -28 19 -46c0 -18.667 -6.33301 -34.334 -19 -47.001s-28 -19 -46 -19s-33.5 6.33301 -46.5 19s-19.5 28.334 -19.5 47.001zM209 828c0 18 6.5 33.333 19.5 46s28.5 19 46.5 19
s33.333 -6.33301 46 -19s19 -28 19 -46c0 -18.667 -6.33301 -34.334 -19 -47.001s-28 -19 -46 -19s-33.5 6.33301 -46.5 19s-19.5 28.334 -19.5 47.001z" />
    <glyph glyph-name="foundryicon" horiz-adv-x="1056" 
d="M1007 251l-16.001 0.00195312c0.666992 -1.33301 1 -3 1 -5c0 -9.33301 -3.66699 -17.5 -11 -24.5s-18.666 -10.5 -33.999 -10.5c-6 0 -10 0.333008 -12 1v-15h18c26 0 39 -12 39 -36c0 -5.33301 -0.666992 -9.83301 -2 -13.5s-2.66602 -6.83398 -3.99902 -9.50098h-27
v29h-46c-3.33301 2.66699 -5.83301 6 -7.5 10s-2.5 8 -2.5 12c0 12 4.66699 22 14 30c-9.33301 5.33301 -14 14.666 -14 27.999c0 10.667 3.83301 19.5 11.5 26.5s18.167 10.5 31.5 10.5c12 0 22.333 -3.33301 31 -10c5.33301 6.66699 11.666 10 18.999 10
c2.66699 0 4.66699 -0.166992 6 -0.5s3 -0.833008 5 -1.5v-31zM244.999 175.002c-4 -14.667 -9.83203 -24.5 -17.499 -29.5s-16.167 -7.5 -25.5 -7.5c-12.667 0 -21.334 2.33301 -26.001 7v26h17c10.667 0 17.667 3.66699 21 11h-14l-24 69h-10v31h38l14 -49l5 -24l11 42h-9
v31h43v-31zM158 187.002c-12 -5.33301 -25.667 -8 -41 -8c-20.667 0 -36.834 5.83301 -48.501 17.5s-17.5 27.834 -17.5 48.501c0 21.333 5.66699 38.5 17 51.5s28.333 19.5 51 19.5c6 0 12.333 -0.666992 19 -2s13.334 -3 20.001 -5v-40h-31v15c-2 0.666992 -5 1 -9 1
c-9.33301 0 -16.5 -3.33301 -21.5 -10s-7.5 -15.334 -7.5 -26.001c0 -24.667 12.333 -37 37 -37h32v-25zM748 179.002c-32.667 0 -49 17.333 -49 52c0 16.667 4.5 29.667 13.5 39s21.167 14 36.5 14s27.5 -4.5 36.5 -13.5s13.5 -21.833 13.5 -38.5s-4.5 -29.667 -13.5 -39
s-21.5 -14 -37.5 -14zM484 277.002c6 2 11.832 3.66797 17.499 5.00098s11.834 2 18.501 2c30.667 0 46 -12.667 46 -38v-34h11v-27c-5.33301 -3.33301 -12 -5 -20 -5c-10.667 0 -18 2.33301 -22 7c-6 -5.33301 -14.333 -8 -25 -8c-9.33301 0 -17.333 2.66699 -24 8
s-10 13 -10 23c0 9.33301 3 16.666 9 21.999s16 8 30 8h16v1c0 2.66699 -1.5 5 -4.5 7s-8.83301 3 -17.5 3h-25v26zM460.999 212.003v-26c-5.33301 -2.66699 -11.333 -4.5 -18 -5.5s-13 -1.5 -19 -1.5c-17.333 0 -30.5 4.5 -39.5 13.5s-13.5 21.5 -13.5 37.5s4 29 12 39
s20.333 15 37 15c13.333 0 24 -4 32 -12s12 -18 12 -30c0 -2.66699 -0.166992 -5.5 -0.5 -8.5s-0.833008 -6.16699 -1.5 -9.5h-55c2.66699 -8 11 -12 25 -12h29zM810.999 251.003v31h34l10 -16c1.33301 3.33301 2.83301 5.83301 4.5 7.5l5.5 5.5
c4.66699 3.33301 9.66699 5 15 5c4 0 8 -0.666992 12 -2v-31h-34v-39h17v-30h-62v30h9v39h-11zM281.999 251.003v31h34l10 -16c1.33301 3.33301 2.83301 5.83301 4.5 7.5l5.5 5.5c4.66699 3.33301 9.66699 5 15 5c4 0 8 -0.666992 12 -2v-31h-34v-39h17v-30h-62v30h10v39
h-12zM588.999 285.003h-12v31h47v-104h14v-28c-6 -2.66699 -13.333 -4 -22 -4c-18 0 -27 9.33301 -27 28v77zM650.999 199.003c0 5.33301 1.66699 10 5 14s8.33301 6 15 6c7.33301 0 12.833 -2 16.5 -6s5.5 -8.66699 5.5 -14s-1.83301 -9.83301 -5.5 -13.5
s-9.16699 -5.5 -16.5 -5.5c-6.66699 0 -11.667 1.83301 -15 5.5s-5 8.16699 -5 13.5zM748.999 206.003c9.33301 0 14 8.66699 14 26c0 16 -4.66699 24 -14 24s-14 -8 -14 -24c0 -17.333 4.66699 -26 14 -26zM935.999 247.003c0 -10 4 -15 12 -15c6.66699 0 10 5 10 15
s-3.33301 15 -10 15c-8 0 -12 -5 -12 -15zM519.999 204.003c4.66699 0 8.33301 1 11 3v15h-8c-8.66699 0 -13 -3 -13 -9s3.33301 -9 10 -9zM418.998 258.003c-6.66699 0 -11 -5.33301 -13 -16h25c0 10.667 -4 16 -12 16z" />
    <glyph glyph-name="tilde.case" horiz-adv-x="422" 
d="M14 828c20.667 24 42.001 42.667 64.001 56s42.667 20 62 20c24.667 0 50.667 -10.5 78 -31.5s50 -31.5 68 -31.5c26 0 53.667 12.333 83 37l20 -26c-7.33301 -10 -24.5 -25.167 -51.5 -45.5s-53.167 -30.5 -78.5 -30.5c-27.333 0 -53.833 10.5 -79.5 31.5
s-47.834 31.5 -66.501 31.5c-12.667 0 -23 -2 -31 -6s-23.333 -14.333 -46 -31z" />
    <glyph glyph-name="ring.case" horiz-adv-x="258" 
d="M125 742c-29.333 0 -54.668 10.5 -76.001 31.5s-32 46.833 -32 77.5c0 31.333 10.833 57.333 32.5 78s46.834 31 75.501 31s54 -10.333 76 -31s33 -46.667 33 -78c0 -30.667 -10.667 -56.5 -32 -77.5s-47 -31.5 -77 -31.5zM124.998 796c15.333 0 28.5 5.5 39.5 16.5
s16.5 23.833 16.5 38.5s-5.66699 27.5 -17 38.5s-24.333 16.5 -39 16.5s-27.5 -5.5 -38.5 -16.5s-16.5 -23.833 -16.5 -38.5s5.5 -27.5 16.5 -38.5s23.833 -16.5 38.5 -16.5z" />
    <glyph glyph-name="noBreak" horiz-adv-x="0" 
 />
    <glyph glyph-name="caron.case" horiz-adv-x="352" 
d="M14 898l46 24l101 -80l138 80l46 -24l-155 -122h-84z" />
    </font>
</defs>
</svg>
